<?xml version="1.0" encoding="UTF-8" standalone="no"?>
<!-- Created with Inkscape (http://www.inkscape.org/) -->

<svg
   xmlns:dc="http://purl.org/dc/elements/1.1/"
   xmlns:cc="http://creativecommons.org/ns#"
   xmlns:rdf="http://www.w3.org/1999/02/22-rdf-syntax-ns#"
   xmlns:svg="http://www.w3.org/2000/svg"
   xmlns="http://www.w3.org/2000/svg"
   xmlns:sodipodi="http://sodipodi.sourceforge.net/DTD/sodipodi-0.dtd"
   xmlns:inkscape="http://www.inkscape.org/namespaces/inkscape"
   width="687.52393mm"
   height="75.083092mm"
   viewBox="0 0 687.52395 75.083094"
   version="1.1"
   id="svg8"
   inkscape:version="0.92.1 r15371"
   sodipodi:docname="gameboy-logo-light-logo.svg">
  <defs
     id="defs2">
    <style
       id="style6"
       type="text/css" />
    <style
       id="style6-3"
       type="text/css" />
  </defs>
  <sodipodi:namedview
     id="base"
     pagecolor="#ffffff"
     bordercolor="#666666"
     borderopacity="1.0"
     inkscape:pageopacity="0.0"
     inkscape:pageshadow="2"
     inkscape:zoom="0.175"
     inkscape:cx="1344.2996"
     inkscape:cy="501.66138"
     inkscape:document-units="mm"
     inkscape:current-layer="layer1"
     showgrid="false"
     fit-margin-top="0"
     fit-margin-left="0"
     fit-margin-right="0"
     fit-margin-bottom="0"
     inkscape:window-width="1366"
     inkscape:window-height="711"
     inkscape:window-x="0"
     inkscape:window-y="33"
     inkscape:window-maximized="1" />
  <metadata
     id="metadata5">
    <rdf:RDF>
      <cc:Work
         rdf:about="">
        <dc:format>image/svg+xml</dc:format>
        <dc:type
           rdf:resource="http://purl.org/dc/dcmitype/StillImage" />
        <dc:title></dc:title>
      </cc:Work>
    </rdf:RDF>
  </metadata>
  <g
     inkscape:label="Layer 1"
     inkscape:groupmode="layer"
     id="layer1"
     transform="translate(243.93912,-141.90785)">
    <g
       id="g4811">
      <g
         style="fill:#000000;fill-opacity:1;stroke-width:0.25"
         transform="matrix(4,0,0,4,86.367564,-545.15181)"
         id="g4816">
        <path
           style="opacity:1;fill:#000000;fill-opacity:1;fill-rule:evenodd;stroke-width:0.04441327"
           d="m -71.171481,172.4725 c -4.589006,0.08 -10.56523,2.31798 -11.352448,9.51183 -0.617415,5.64399 4.323703,8.33188 7.617521,8.27806 1.604339,0.0905 4.090412,-0.75861 5.075347,-1.74877 l 0.661459,-6.31728 h -4.99721 l -0.236235,2.25884 h 2.386384 v 2.31703 c -0.750773,0.79477 -2.722647,1.08501 -3.185994,1.08501 -2.069586,0 -4.950649,-1.83506 -4.796239,-5.70523 0.154394,-3.86997 5.233092,-9.0682 12.049436,-6.75773 l 0.188793,-2.48076 c -0.977935,-0.34942 -1.881147,-0.46765 -3.410814,-0.441 z"
           id="path4644-6"
           inkscape:connector-curvature="0"
           sodipodi:nodetypes="cccccccccscccc" />
        <path
           style="opacity:1;fill:#000000;fill-opacity:1;fill-rule:evenodd;stroke-width:0.04441328"
           d="m -15.476019,172.39499 -2.394889,17.2428 h 4.183396 c 3.45939,0 6.2802127,-0.47412 6.9435707,-4.73626 0.372557,-2.39483 -1.472813,-4.00853 -2.377744,-4.80641 0.585473,-0.42565 1.235392,-0.24907 1.554678,-2.96335 0.319286,-2.7141 -2.235242,-4.73678 -3.9916567,-4.73678 z m 2.190687,2.42087 h 1.334881 c 1.299649,0 2.0303587,1.29948 1.949063,1.94958 -0.08129,0.64955 -0.567978,2.27382 -3.085973,2.27382 h -0.766429 z m -0.96596,6.73365 h 2.213158 c 1.892821,0 2.9595727,2.32953 2.8558617,3.1582 -0.103706,0.82901 -0.694163,2.64327 -3.9061307,2.64327 h -1.992191 z"
           id="_44104296-3-2"
           inkscape:connector-curvature="0"
           sodipodi:nodetypes="ccscccsccscscccscscc" />
        <path
           style="opacity:1;fill:#000000;fill-opacity:1;fill-rule:evenodd;stroke-width:0.04441328"
           d="m 2.6769717,172.03185 c -2.40548297,0.0235 -5.531326,1.62622 -7.32528,7.26835 -2.050442,6.44741 0.797761,9.53686 3.69789603,10.35776 2.90062397,0.82078 7.32619597,-0.76858 8.91203397,-6.99936 1.585704,-6.23098 -0.700265,-9.91245 -4.303765,-10.54736 -0.308258,-0.0539 -0.637244,-0.0827 -0.980885,-0.0794 z m 0.150424,2.42296 c 0.09215,0.003 0.179938,0.0126 0.262196,0.0277 1.2646,0.16434 3.849093,1.48123 2.434448,7.18269 -1.414346,5.7022 -4.63573597,5.98445 -5.76203297,5.69779 -1.12651403,-0.28652 -3.35875503,-1.48741 -2.00668203,-6.7074 1.26764503,-4.89286 3.689787,-6.24906 5.072071,-6.20076 z"
           id="path4686-9"
           inkscape:connector-curvature="0"
           sodipodi:nodetypes="ccccccsccccs" />
        <path
           style="opacity:1;fill:#000000;fill-opacity:1;fill-rule:evenodd;stroke-width:1.25608683"
           d="m -23.118601,189.68246 0.292968,-2.44051 h -8.487175 l 0.748144,-5.18163 h 5.661919 l 0.29314,-2.4388 h -5.609304 l 0.701066,-4.59422 h 6.36106 l 0.345583,-2.48605 h -8.864063 l -2.380562,17.14121 z"
           id="_43441624-7-1"
           inkscape:connector-curvature="0"
           sodipodi:nodetypes="ccccccccccccc" />
        <path
           style="opacity:1;fill:#000000;fill-opacity:1;fill-rule:evenodd;stroke-width:1.25608683"
           d="m 11.251255,172.39644 3.152148,6.07077 4.443387,-6.07077 h 3.25369 l -6.723892,8.61487 -1.138229,8.52634 H 11.57397 l 1.162955,-8.52634 -4.5686873,-8.61487 z"
           id="_43443024-5-2"
           inkscape:connector-curvature="0"
           sodipodi:nodetypes="cccccccccc" />
        <path
           style="opacity:1;fill:#000000;fill-opacity:1;fill-rule:evenodd;stroke-width:0.04441327"
           d="m -54.362252,189.68247 h 2.492724 l 3.974243,-11.50337 3.320015,11.50337 5.946056,-11.50337 0.490627,11.50337 h 2.402531 l -0.53493,-17.08168 h -2.21933 l -5.469432,10.26699 -2.598907,-10.26699 h -2.169747 z"
           id="path4642-3-7"
           inkscape:connector-curvature="0"
           sodipodi:nodetypes="ccccccccccccc" />
        <path
           inkscape:connector-curvature="0"
           style="opacity:1;fill:#000000;fill-opacity:1;stroke:none;stroke-width:0.06614583px;stroke-linecap:butt;stroke-linejoin:miter;stroke-opacity:1"
           d="m -60.784053,172.61719 -7.885824,17.20515 h 2.759522 l 2.143538,-4.67723 h 4.891174 l 0.880049,4.67723 h 2.390038 l -2.973462,-17.20515 z m 0.485243,4.96146 0.977199,5.19451 h -3.357933 z"
           id="path4739-0" />
      </g>
      <g
         id="g4791">
        <path
           sodipodi:nodetypes="sccccccccscccs"
           id="_43775888-6"
           d="m 310.79484,141.90801 c -20.44903,-0.039 -41.90975,7.04266 -45.46462,39.00677 -2.73119,24.56583 19.12678,36.26468 33.69736,36.03048 8.42444,0.46763 19.26438,-2.80906 19.26438,-2.80906 l 4.38533,-37.53343 h -24.81015 v 12.43577 h 10.01566 l -0.77728,11.82866 c -2.6249,0.70333 -8.58206,0.70227 -10.63172,0.70227 -2.04898,0 -17.83782,-2.8736 -17.15475,-19.71869 0.68297,-16.84435 19.19983,-31.71754 45.15543,-23.0608 l 2.77192,-14.139 c -4.05562,-1.42586 -10.19164,-2.73102 -16.45156,-2.74297 z"
           style="opacity:1;fill:#1cbcba;fill-opacity:1;fill-rule:evenodd;stroke-width:0.17765309"
           inkscape:connector-curvature="0" />
        <path
           style="opacity:1;vector-effect:none;fill:#1cbcba;fill-opacity:1;stroke:none;stroke-width:1.32291663;stroke-linecap:butt;stroke-linejoin:miter;stroke-miterlimit:4;stroke-dasharray:none;stroke-dashoffset:0;stroke-opacity:1;paint-order:fill markers stroke"
           d="m 252.36263,142.82691 h 13.16432 l -8.31548,71.81549 h -13.16432 z"
           id="rect4657"
           inkscape:connector-curvature="0"
           sodipodi:nodetypes="ccccc" />
        <path
           style="opacity:1;vector-effect:none;fill:#1cbcba;fill-opacity:1;stroke:none;stroke-width:1.32291663;stroke-linecap:butt;stroke-linejoin:miter;stroke-miterlimit:4;stroke-dasharray:none;stroke-dashoffset:0;stroke-opacity:1;paint-order:fill markers stroke"
           d="m 206.65831,142.82691 h 13.16432 l -8.31548,71.81549 h -13.16432 z"
           id="rect4657-3"
           inkscape:connector-curvature="0"
           sodipodi:nodetypes="ccccc" />
        <path
           style="opacity:1;vector-effect:none;fill:#1cbcba;fill-opacity:1;stroke:none;stroke-width:1.32291663;stroke-linecap:butt;stroke-linejoin:miter;stroke-miterlimit:4;stroke-dasharray:none;stroke-dashoffset:0;stroke-opacity:1;paint-order:fill markers stroke"
           d="m 333.2546,142.8269 h 13.16432 l -8.31548,71.8155 h -13.16432 z"
           id="rect4657-3-5"
           inkscape:connector-curvature="0"
           sodipodi:nodetypes="ccccc" />
        <path
           style="opacity:1;vector-effect:none;fill:#1cbcba;fill-opacity:1;stroke:none;stroke-width:1.32291663;stroke-linecap:butt;stroke-linejoin:miter;stroke-miterlimit:4;stroke-dasharray:none;stroke-dashoffset:0;stroke-opacity:1;paint-order:fill markers stroke"
           d="m 377.71081,142.82691 h 13.16432 l -8.31548,71.81549 h -13.16432 z"
           id="rect4657-3-6"
           inkscape:connector-curvature="0"
           sodipodi:nodetypes="ccccc" />
        <path
           style="opacity:1;vector-effect:none;fill:#1cbcba;fill-opacity:1;stroke:none;stroke-width:1.32291663;stroke-linecap:butt;stroke-linejoin:miter;stroke-miterlimit:4;stroke-dasharray:none;stroke-dashoffset:0;stroke-opacity:1;paint-order:fill markers stroke"
           d="m 412.45586,142.82691 h 13.16432 l -8.31548,71.81549 h -13.16432 z"
           id="rect4657-3-2"
           inkscape:connector-curvature="0"
           sodipodi:nodetypes="ccccc" />
        <path
           style="opacity:1;vector-effect:none;fill:#1cbcba;fill-opacity:1;stroke:none;stroke-width:1.32291663;stroke-linecap:butt;stroke-linejoin:miter;stroke-miterlimit:4;stroke-dasharray:none;stroke-dashoffset:0;stroke-opacity:1;paint-order:fill markers stroke"
           d="m 393.83577,142.82691 h 49.74902 l -1.60362,13.23319 h -49.74902 z"
           id="rect4732"
           inkscape:connector-curvature="0"
           sodipodi:nodetypes="ccccc" />
        <path
           style="opacity:1;vector-effect:none;fill:#1cbcba;fill-opacity:1;stroke:none;stroke-width:1.32291663;stroke-linecap:butt;stroke-linejoin:miter;stroke-miterlimit:4;stroke-dasharray:none;stroke-dashoffset:0;stroke-opacity:1;paint-order:fill markers stroke"
           d="m 335.21551,171.04899 h 49.74902 l -1.60362,14.4359 h -49.74902 z"
           id="rect4732-9"
           inkscape:connector-curvature="0"
           sodipodi:nodetypes="ccccc" />
        <path
           style="opacity:1;vector-effect:none;fill:#1cbcba;fill-opacity:1;stroke:none;stroke-width:1.32291663;stroke-linecap:butt;stroke-linejoin:miter;stroke-miterlimit:4;stroke-dasharray:none;stroke-dashoffset:0;stroke-opacity:1;paint-order:fill markers stroke"
           d="m 202.54956,201.94375 h 36.51985 l -1.60362,13.23319 h -36.51985 z"
           id="rect4732-1"
           inkscape:connector-curvature="0"
           sodipodi:nodetypes="ccccc" />
      </g>
    </g>
  </g>
</svg>
