<?xml version="1.0" encoding="UTF-8" standalone="no"?>
<!-- Created with Inkscape (http://www.inkscape.org/) -->

<svg
   xmlns:dc="http://purl.org/dc/elements/1.1/"
   xmlns:cc="http://creativecommons.org/ns#"
   xmlns:rdf="http://www.w3.org/1999/02/22-rdf-syntax-ns#"
   xmlns:svg="http://www.w3.org/2000/svg"
   xmlns="http://www.w3.org/2000/svg"
   xmlns:sodipodi="http://sodipodi.sourceforge.net/DTD/sodipodi-0.dtd"
   xmlns:inkscape="http://www.inkscape.org/namespaces/inkscape"
   width="646.02069mm"
   height="72.949738mm"
   viewBox="0 0 646.02071 72.94974"
   version="1.1"
   id="svg8"
   inkscape:version="0.92.1 r15371"
   sodipodi:docname="gameboy-pocket-logo.svg">
  <defs
     id="defs2">
    <style
       id="style6"
       type="text/css" />
  </defs>
  <sodipodi:namedview
     id="base"
     pagecolor="#ffffff"
     bordercolor="#666666"
     borderopacity="1.0"
     inkscape:pageopacity="0.0"
     inkscape:pageshadow="2"
     inkscape:zoom="0.24748737"
     inkscape:cx="1245.2395"
     inkscape:cy="54.981535"
     inkscape:document-units="mm"
     inkscape:current-layer="layer1"
     showgrid="false"
     fit-margin-top="0"
     fit-margin-left="0"
     fit-margin-right="0"
     fit-margin-bottom="0"
     inkscape:window-width="1366"
     inkscape:window-height="711"
     inkscape:window-x="0"
     inkscape:window-y="33"
     inkscape:window-maximized="1" />
  <metadata
     id="metadata5">
    <rdf:RDF>
      <cc:Work
         rdf:about="">
        <dc:format>image/svg+xml</dc:format>
        <dc:type
           rdf:resource="http://purl.org/dc/dcmitype/StillImage" />
        <dc:title></dc:title>
      </cc:Work>
    </rdf:RDF>
  </metadata>
  <g
     inkscape:label="Layer 1"
     inkscape:groupmode="layer"
     id="layer1"
     transform="translate(243.93912,-142.97453)">
    <g
       id="g4583">
      <g
         style="fill:#000000;stroke-width:0.25"
         transform="matrix(4,0,0,4,86.367564,-545.15181)"
         id="g4816">
        <path
           style="opacity:1;fill:#000000;fill-opacity:1;fill-rule:evenodd;stroke-width:0.04441327"
           d="m -71.171481,172.4725 c -4.589006,0.08 -10.56523,2.31798 -11.352448,9.51183 -0.617415,5.64399 4.323703,8.33188 7.617521,8.27806 1.604339,0.0905 4.090412,-0.75861 5.075347,-1.74877 l 0.661459,-6.31728 h -4.99721 l -0.236235,2.25884 h 2.386384 v 2.31703 c -0.750773,0.79477 -2.722647,1.08501 -3.185994,1.08501 -2.069586,0 -4.950649,-1.83506 -4.796239,-5.70523 0.154394,-3.86997 5.233092,-9.0682 12.049436,-6.75773 l 0.188793,-2.48076 c -0.977935,-0.34942 -1.881147,-0.46765 -3.410814,-0.441 z"
           id="path4644-6"
           inkscape:connector-curvature="0"
           sodipodi:nodetypes="cccccccccscccc" />
        <path
           style="opacity:1;fill:#000000;fill-opacity:1;fill-rule:evenodd;stroke-width:0.04441328"
           d="m -15.476019,172.39499 -2.394889,17.2428 h 4.183396 c 3.45939,0 6.2802127,-0.47412 6.9435707,-4.73626 0.372557,-2.39483 -1.472813,-4.00853 -2.377744,-4.80641 0.585473,-0.42565 1.235392,-0.24907 1.554678,-2.96335 0.319286,-2.7141 -2.235242,-4.73678 -3.9916567,-4.73678 z m 2.190687,2.42087 h 1.334881 c 1.299649,0 2.0303587,1.29948 1.949063,1.94958 -0.08129,0.64955 -0.567978,2.27382 -3.085973,2.27382 h -0.766429 z m -0.96596,6.73365 h 2.213158 c 1.892821,0 2.9595727,2.32953 2.8558617,3.1582 -0.103706,0.82901 -0.694163,2.64327 -3.9061307,2.64327 h -1.992191 z"
           id="_44104296-3-2"
           inkscape:connector-curvature="0"
           sodipodi:nodetypes="ccscccsccscscccscscc" />
        <path
           style="opacity:1;fill:#000000;fill-opacity:1;fill-rule:evenodd;stroke-width:0.04441328"
           d="m 2.6769717,172.03185 c -2.40548297,0.0235 -5.531326,1.62622 -7.32528,7.26835 -2.050442,6.44741 0.797761,9.53686 3.69789603,10.35776 2.90062397,0.82078 7.32619597,-0.76858 8.91203397,-6.99936 1.585704,-6.23098 -0.700265,-9.91245 -4.303765,-10.54736 -0.308258,-0.0539 -0.637244,-0.0827 -0.980885,-0.0794 z m 0.150424,2.42296 c 0.09215,0.003 0.179938,0.0126 0.262196,0.0277 1.2646,0.16434 3.849093,1.48123 2.434448,7.18269 -1.414346,5.7022 -4.63573597,5.98445 -5.76203297,5.69779 -1.12651403,-0.28652 -3.35875503,-1.48741 -2.00668203,-6.7074 1.26764503,-4.89286 3.689787,-6.24906 5.072071,-6.20076 z"
           id="path4686-9"
           inkscape:connector-curvature="0"
           sodipodi:nodetypes="ccccccsccccs" />
        <path
           style="opacity:1;fill:#000000;fill-opacity:1;fill-rule:evenodd;stroke-width:1.25608683"
           d="m -23.118601,189.68246 0.292968,-2.44051 h -8.487175 l 0.748144,-5.18163 h 5.661919 l 0.29314,-2.4388 h -5.609304 l 0.701066,-4.59422 h 6.36106 l 0.345583,-2.48605 h -8.864063 l -2.380562,17.14121 z"
           id="_43441624-7-1"
           inkscape:connector-curvature="0"
           sodipodi:nodetypes="ccccccccccccc" />
        <path
           style="opacity:1;fill:#000000;fill-opacity:1;fill-rule:evenodd;stroke-width:1.25608683"
           d="m 11.251255,172.39644 3.152148,6.07077 4.443387,-6.07077 h 3.25369 l -6.723892,8.61487 -1.138229,8.52634 H 11.57397 l 1.162955,-8.52634 -4.5686873,-8.61487 z"
           id="_43443024-5-2"
           inkscape:connector-curvature="0"
           sodipodi:nodetypes="cccccccccc" />
        <path
           style="opacity:1;fill:#000000;fill-opacity:1;fill-rule:evenodd;stroke-width:0.04441327"
           d="m -54.362252,189.68247 h 2.492724 l 3.974243,-11.50337 3.320015,11.50337 5.946056,-11.50337 0.490627,11.50337 h 2.402531 l -0.53493,-17.08168 h -2.21933 l -5.469432,10.26699 -2.598907,-10.26699 h -2.169747 z"
           id="path4642-3-7"
           inkscape:connector-curvature="0"
           sodipodi:nodetypes="ccccccccccccc" />
        <path
           inkscape:connector-curvature="0"
           style="opacity:1;fill:#000000;fill-opacity:1;stroke:none;stroke-width:0.06614583px;stroke-linecap:butt;stroke-linejoin:miter;stroke-opacity:1"
           d="m -60.784053,172.61719 -7.885824,17.20515 h 2.759522 l 2.143538,-4.67723 h 4.891174 l 0.880049,4.67723 h 2.390038 l -2.973462,-17.20515 z m 0.485243,4.96146 0.977199,5.19451 h -3.357933 z"
           id="path4739-0" />
      </g>
      <path
         sodipodi:nodetypes="ccccccsccccccccccccccssscccscccccccccscsccccscsccccsccscccscsscccccssccccccccccccccsscccccccccscscccccsccccccscscscccccccccscccccsccccsccccccccccscccccsccccccccsccscsscssccccccccccssscsccccccccccccccccccccccccccccccccccccccccccccccccccccccccccscccsssscccsccccccscccccsccccsscccccccccccscscscscccccccccccccccccccccccccccccscc"
         inkscape:connector-curvature="0"
         id="path4572"
         d="M 191.74552,179.44937 V 144.5892 h 105.16804 105.16803 v 34.86017 34.86016 H 301.6138 c -103.90069,0 -100.99727,0.0203 -100.27635,-0.70063 0.10531,-0.1053 0.23993,-0.84999 0.29917,-1.65488 0.0593,-0.80489 0.32616,-3.09384 0.59314,-5.08655 0.26699,-1.9927 0.49832,-3.86581 0.51405,-4.16245 0.0472,-0.89088 0.41154,-1.00186 1.20882,-0.36826 0.94612,0.75187 2.58465,1.53787 3.98283,1.91055 0.89587,0.23879 1.67022,0.27619 3.59027,0.17338 2.29681,-0.12298 2.56298,-0.18099 4.30856,-0.93904 1.02328,-0.44438 2.05467,-0.98801 2.29196,-1.20808 0.52601,-0.4878 1.68823,-1.4664 1.95062,-1.64245 0.51979,-0.34873 2.23228,-2.85187 2.9016,-4.24128 1.15544,-2.39847 1.29223,-2.80562 1.87532,-5.58154 0.2325,-1.10688 0.27733,-3.48497 0.0923,-4.89609 -0.33195,-2.53162 -1.61726,-5.3304 -3.27122,-7.12315 -0.6587,-0.71397 -1.26845,-1.29813 -1.35502,-1.29813 -0.0865,0 -0.54912,-0.26439 -1.02792,-0.58753 -0.4788,-0.32314 -0.96913,-0.58753 -1.08962,-0.58753 -0.12048,0 -0.37208,-0.0773 -0.55913,-0.1718 -1.56332,-0.78979 -5.18343,-0.99765 -7.55463,-0.43378 -2.33076,0.55427 -3.46917,0.97142 -4.24229,1.55451 -1.02414,0.77244 -2.91707,0.82701 -5.14234,0.14826 -2.02787,-0.61854 -2.22412,-0.62516 -2.5133,-0.0848 -0.22671,0.4236 -0.76346,3.88063 -1.05913,6.82137 -0.0487,0.48472 -0.13278,1.14569 -0.18675,1.46883 -0.054,0.32314 -0.31772,2.35013 -0.5861,4.50441 -0.26837,2.15428 -0.56924,4.26939 -0.66859,4.70024 -0.0994,0.43086 -0.18841,0.91557 -0.19788,1.07714 -0.0887,1.51137 -1.04937,8.93977 -1.76087,13.61639 -0.11516,0.75689 -0.16073,1.56214 -0.10129,1.78945 0.0594,0.22731 0.0123,0.4725 -0.10484,0.54487 -0.11709,0.0724 -0.2129,0.37976 -0.2129,0.68308 0,0.30332 -0.0551,0.82689 -0.1224,1.1635 -0.10809,0.54038 -0.19976,0.61201 -0.78338,0.61201 h -0.66097 z m 53.56324,24.65512 c 2.51063,-0.62182 3.47434,-0.97431 4.29818,-1.57216 0.42515,-0.30852 0.86247,-0.56095 0.97183,-0.56095 0.22174,0 0.52408,-0.27236 2.71062,-2.44188 0.83478,-0.82829 1.51778,-1.58272 1.51778,-1.67651 0,-0.0938 0.26134,-0.55775 0.58074,-1.03101 0.55512,-0.82252 1.02941,-1.7761 1.09167,-2.19473 0.0161,-0.10772 0.14304,-0.46023 0.28231,-0.78338 0.13926,-0.32314 0.32267,-0.94005 0.40757,-1.3709 0.0849,-0.43086 0.25783,-1.17996 0.38426,-1.66467 0.29937,-1.14773 0.28586,-5.64131 -0.0208,-6.92815 -0.44796,-1.8796 -1.58677,-3.92562 -2.90153,-5.213 -0.55067,-0.53921 -1.05146,-0.98037 -1.11288,-0.98037 -0.0614,0 -0.71443,-0.35811 -1.45116,-0.79579 -0.73674,-0.43769 -1.45717,-0.77607 -1.601,-0.75197 -0.14381,0.0241 -0.52586,-0.0678 -0.849,-0.20427 -1.77213,-0.74831 -5.71112,-0.68008 -8.72636,0.15116 -3.66833,1.01128 -4.63102,1.57677 -7.32894,4.30509 -1.44322,1.45947 -3.2353,4.39526 -3.2353,5.30006 0,0.22935 -0.0689,0.41699 -0.15309,0.41699 -0.27193,0 -1.2128,3.99159 -1.20023,5.09194 0.004,0.37699 -0.005,0.81764 -0.0201,0.97921 -0.0153,0.16157 0.0309,1.04287 0.10268,1.95844 0.14224,1.81343 0.54458,3.34557 1.08002,4.11272 0.18795,0.26928 0.47566,0.79806 0.63935,1.17506 0.62039,1.42879 3.70606,3.91687 4.85762,3.91687 0.20525,0 0.37318,0.0689 0.37318,0.15309 0,0.0842 0.41862,0.26415 0.93026,0.3999 0.51164,0.13574 1.14631,0.30983 1.41039,0.38686 0.26405,0.077 1.586,0.15588 2.93765,0.17522 1.88439,0.027 2.82291,-0.0553 4.02428,-0.35287 z m -3.91688,-4.86829 c -1.81727,-0.20974 -2.95539,-0.97007 -3.47432,-2.32104 -0.98672,-2.56878 -1.0395,-4.85451 -0.20658,-8.94659 0.0438,-0.21543 0.1047,-0.63541 0.13521,-0.93328 0.0576,-0.56215 0.19158,-0.89735 1.0662,-2.66697 0.6952,-1.40664 2.36557,-3.08643 3.31312,-3.33182 0.40322,-0.10442 1.1073,-0.28722 1.56464,-0.40621 0.57772,-0.15032 0.947,-0.15456 1.20984,-0.0139 0.20806,0.11136 0.51758,0.14903 0.68778,0.0837 0.17021,-0.0653 0.526,0.0231 0.79066,0.19654 0.26467,0.17342 0.61652,0.3153 0.78187,0.3153 0.16537,0 0.30066,0.09 0.30066,0.20004 0,0.11003 0.2148,0.29792 0.47735,0.41755 0.5897,0.26868 1.20363,1.73472 1.46364,3.49513 0.54389,3.68264 -0.83203,10.0432 -2.58426,11.94646 -0.82636,0.89759 -2.18514,1.70978 -3.23428,1.93323 -0.5708,0.12158 -1.05552,0.20899 -1.07714,0.19425 -0.0216,-0.0147 -0.5681,-0.0878 -1.21439,-0.16242 z m 35.83939,4.856 c 1.27018,-0.224 3.55817,-1.24941 4.99856,-2.24023 0.85914,-0.59099 2.14973,-1.76792 2.14973,-1.96041 0,-0.0502 0.35252,-0.55817 0.78338,-1.12883 0.43085,-0.57067 0.78337,-1.13705 0.78337,-1.25863 0,-0.12158 0.162,-0.51015 0.36,-0.8635 0.19798,-0.35334 0.40888,-0.99496 0.46866,-1.42582 0.0598,-0.43086 0.1401,-0.90505 0.17857,-1.05377 0.0576,-0.22281 -0.62954,-0.2745 -3.9055,-0.29376 -3.96209,-0.0233 -3.97641,-0.0218 -4.27525,0.43426 -0.1649,0.25171 -0.25046,0.50702 -0.19012,0.56736 0.1648,0.1648 -1.02307,2.29889 -1.71994,3.08994 -0.79702,0.90477 -3.14842,1.62437 -4.12027,1.26093 -1.21525,-0.45445 -1.46135,-0.64389 -2.08319,-1.60357 -0.53325,-0.82292 -0.66381,-1.2631 -0.82088,-2.76713 -0.10272,-0.9837 -0.18658,-2.00886 -0.18639,-2.27815 0,-1.14591 0.29694,-3.84512 0.45507,-4.1488 0.0944,-0.18142 0.17175,-0.54585 0.17175,-0.80985 0,-0.51187 0.50594,-2.35612 0.80145,-2.9214 0.0978,-0.18704 0.17777,-0.44669 0.17777,-0.577 0,-0.31138 0.94673,-1.69433 1.56675,-2.28865 1.07171,-1.0273 3.43835,-1.47302 4.79817,-0.90368 1.39476,0.58397 1.84841,1.29027 2.33342,3.63283 0.0572,0.27646 0.30473,0.60872 0.54998,0.73836 0.49639,0.26238 4.22449,0.42182 5.15482,0.22045 0.32789,-0.071 0.78307,-0.0599 1.01152,0.0246 0.47654,0.17629 1.53839,-0.0538 1.50032,-0.3251 -0.0141,-0.1 0.0438,-0.36397 0.12845,-0.58669 0.0922,-0.2424 0.0141,-0.98918 -0.19443,-1.86051 -0.62537,-2.61277 -1.14724,-3.48918 -2.91639,-4.8978 -0.92914,-0.73979 -2.92144,-1.76781 -3.65082,-1.8838 -0.21543,-0.0343 -0.83233,-0.14929 -1.3709,-0.25562 -1.77952,-0.35133 -3.56861,-0.41769 -5.22255,-0.19373 -1.71149,0.23177 -4.98079,1.378 -5.61466,1.96854 -0.1995,0.18586 -0.63647,0.47949 -0.97107,0.65251 -0.33458,0.17302 -0.67881,0.43256 -0.76495,0.57676 -0.0861,0.14419 -0.30338,0.34249 -0.48273,0.44065 -0.45228,0.24751 -2.53191,2.91858 -3.18975,4.09688 -0.87087,1.55987 -1.93092,4.82619 -1.9005,5.85604 0.006,0.20567 -0.087,0.55706 -0.20675,0.78087 -0.13194,0.24653 -0.20707,1.39637 -0.1906,2.91711 0.0308,2.84507 0.41707,4.48266 1.41143,5.98385 0.32083,0.48438 0.58334,0.99278 0.58334,1.12978 0,0.13699 0.15865,0.36424 0.35256,0.50499 0.19392,0.14075 0.48741,0.45246 0.65221,0.69269 0.45526,0.66358 1.89495,1.68712 3.20587,2.27919 0.64628,0.29189 1.30725,0.59726 1.46882,0.6786 0.16157,0.0813 0.86577,0.17255 1.56489,0.20267 0.6991,0.0301 1.31601,0.10067 1.37091,0.15676 0.13707,0.14008 3.55738,-0.10652 4.99587,-0.3602 z m 58.82119,-0.28995 c 2.26926,-0.54901 3.52902,-1.03384 3.92449,-1.51034 0.14631,-0.17629 0.39756,-0.32053 0.55837,-0.32053 0.75735,0 4.10997,-4.42795 3.67894,-4.85897 -0.0667,-0.0667 -1.6321,-0.12438 -3.47865,-0.12816 -3.13052,-0.006 -3.38459,0.0203 -3.76053,0.39544 -1.18082,1.17828 -1.99964,1.51143 -4.15956,1.69238 -1.41063,0.11817 -2.14831,0.10853 -2.28671,-0.0299 -0.11238,-0.11237 -0.34945,-0.20431 -0.5268,-0.20431 -0.17736,0 -0.62241,-0.29325 -0.98901,-0.65167 -0.54014,-0.52808 -0.73544,-0.95033 -1.02987,-2.22659 -0.28838,-1.25006 -0.31597,-1.66338 -0.13384,-2.00371 0.1294,-0.24179 0.17354,-0.6835 0.10119,-1.01285 -0.0721,-0.32849 -0.0358,-0.69551 0.0831,-0.83875 0.19588,-0.23603 3.55331,-0.30709 15.03735,-0.31826 0.55848,-5.9e-4 1.13133,-0.11163 1.27298,-0.24685 0.14167,-0.13523 0.49993,-0.35312 0.79614,-0.48419 0.29622,-0.13108 0.53857,-0.36166 0.53857,-0.5124 0,-0.15074 0.1983,-0.40573 0.44065,-0.56664 0.41807,-0.27757 0.44396,-0.43942 0.50538,-3.15725 0.0624,-2.76149 0.0426,-2.93327 -0.54841,-4.76889 -0.3372,-1.04731 -0.78494,-2.0643 -0.99496,-2.25997 -0.21004,-0.19567 -0.38187,-0.44543 -0.38187,-0.55502 0,-0.27881 -1.96653,-2.13561 -2.26182,-2.13561 -0.13323,0 -0.29296,-0.13219 -0.35497,-0.29376 -0.062,-0.16157 -0.29177,-0.29377 -0.51056,-0.29377 -0.21882,0 -0.39784,-0.0779 -0.39784,-0.17301 0,-0.0952 -0.19829,-0.22127 -0.44065,-0.28026 -0.24235,-0.059 -0.82526,-0.20416 -1.29537,-0.32261 -2.02584,-0.51046 -4.5231,-0.62518 -6.29357,-0.28911 -2.49064,0.47276 -5.08261,1.35797 -5.37861,1.83688 -0.0669,0.10827 -0.40432,0.33163 -0.74983,0.49637 -1.44942,0.69109 -4.27979,3.95888 -5.15305,5.94943 -0.17227,0.39269 -0.38139,0.89024 -0.4647,1.10567 -0.0833,0.21543 -0.25201,0.64126 -0.37485,0.9463 -0.68976,1.71287 -1.32325,5.96761 -1.25122,8.40359 0.0648,2.19336 1.2428,5.92159 2.13107,6.7448 0.25838,0.23946 0.46979,0.52773 0.46979,0.64059 0,0.11285 0.13219,0.20519 0.29377,0.20519 0.16157,0 0.29376,0.0833 0.29376,0.18516 0,0.10183 0.24236,0.3156 0.53857,0.47504 1.4619,0.78685 2.64569,1.29824 3.0053,1.29824 0.21931,0 0.56489,0.0889 0.76794,0.19758 0.20305,0.10867 1.00844,0.24419 1.78976,0.30116 0.7813,0.057 1.45126,0.13427 1.48876,0.17178 0.20787,0.20788 3.7603,-0.18102 5.50137,-0.60225 z m -7.13412,-18.10728 c 0.12241,-0.92268 1.096,-3.12503 1.74068,-3.93749 0.38685,-0.48755 1.88247,-1.07845 3.12148,-1.23325 1.4838,-0.18539 3.21232,0.19723 3.87224,0.85714 0.64379,0.64381 1.27803,3.01951 1.08327,4.05771 -0.20272,1.08054 -0.69658,1.1876 -5.66604,1.22828 l -4.28527,0.0351 z m 34.94869,18.26121 c 1.22495,-0.12872 2.38093,-0.31631 2.56885,-0.41688 0.24327,-0.1302 0.37954,-0.53738 0.47321,-1.41396 0.0724,-0.6771 0.18357,-1.64971 0.24718,-2.16135 l 0.11562,-0.93026 -1.83679,-0.009 c -2.3027,-0.0118 -3.0547,-0.32901 -3.43918,-1.45076 -0.3306,-0.96457 -0.24184,-2.3031 0.53946,-8.13617 0.32463,-2.42357 0.61361,-4.67087 0.64223,-4.99401 0.0286,-0.32315 0.10597,-0.71973 0.17195,-0.8813 0.066,-0.16157 0.16137,-0.72328 0.21198,-1.24824 0.0506,-0.52497 0.18979,-1.01489 0.30925,-1.08873 0.11947,-0.0738 1.46339,-0.1458 2.98646,-0.15993 1.5231,-0.0141 2.8529,-0.10933 2.95511,-0.21155 0.22537,-0.22537 0.82546,-4.71184 0.65325,-4.88404 -0.0671,-0.0671 -1.44135,-0.10542 -3.05396,-0.0852 -2.93738,0.0368 -3.06844,0.008 -2.94142,-0.63809 0.0204,-0.10357 0.0742,-0.58828 0.11962,-1.07714 0.0455,-0.48886 0.12374,-1.19729 0.17397,-1.57429 0.0502,-0.377 0.13752,-1.08204 0.19397,-1.56675 0.0564,-0.48471 0.15833,-1.21601 0.22643,-1.6251 0.11717,-0.70393 0.099,-0.73853 -0.33936,-0.64552 -1.29245,0.27421 -2.82056,0.56469 -4.71615,0.89648 -1.35898,0.23786 -2.23199,0.49301 -2.47681,0.72386 -0.40861,0.3853 -0.72707,1.38047 -0.9124,2.85118 -0.0643,0.51035 -0.22679,1.03913 -0.36104,1.17506 -0.13427,0.13593 -0.30111,0.3977 -0.37077,0.5817 -0.18348,0.48474 -2.13328,0.99141 -3.69187,0.95937 -0.77454,-0.0159 -1.37725,0.0615 -1.45474,0.18688 -0.13396,0.21675 -0.66043,3.84063 -0.67184,4.6246 -0.006,0.41795 0.0432,0.42541 2.62704,0.39737 1.44829,-0.0157 2.67288,0.0129 2.72129,0.0637 0.0484,0.0507 -0.0808,1.41418 -0.28711,3.02989 -0.20632,1.61571 -0.37036,3.22764 -0.3645,3.58206 0.006,0.35442 -0.0584,0.75101 -0.14291,0.8813 -0.0845,0.13029 -0.16745,0.50128 -0.18444,0.82442 -0.017,0.32314 -0.0824,0.89598 -0.14534,1.27298 -0.22019,1.31874 -0.68122,5.25694 -0.70282,6.00342 -0.0119,0.41426 -0.0289,0.92945 -0.0376,1.14488 -0.0932,2.30716 0.73179,4.52472 1.95562,5.25684 1.64757,0.98563 3.95089,1.19328 8.23857,0.74274 z m -64.68061,-0.6672 c 0.0738,-0.0738 0.54014,-3.01815 0.76696,-4.84278 0.72451,-5.82774 1.01052,-6.97166 1.45246,-5.80928 0.10904,0.28683 0.29308,0.5215 0.40896,0.5215 0.11588,0 0.34643,0.32489 0.51234,0.72197 0.1659,0.39708 0.5112,0.9967 0.76732,1.33249 0.25611,0.33578 0.60177,0.93626 0.76812,1.33439 0.16635,0.39812 0.38293,0.72387 0.48132,0.72387 0.18547,0 0.79509,1.09191 0.79509,1.4241 0,0.10387 0.26439,0.48998 0.58753,0.85802 0.32314,0.36804 0.58753,0.79199 0.58753,0.94212 0,0.15013 0.12272,0.39568 0.27271,0.54567 0.14998,0.14999 0.49754,0.71641 0.77235,1.25871 0.49149,0.9699 0.51662,0.98754 1.53884,1.07982 0.57157,0.0516 2.14083,0.0706 3.48725,0.0422 1.34643,-0.0284 2.95262,-0.0579 3.56929,-0.0656 1.10828,-0.0138 1.11915,-0.0195 0.93809,-0.49576 -0.10074,-0.26498 -0.32465,-0.63953 -0.49757,-0.83233 -0.36541,-0.40743 -1.11855,-1.4763 -1.61051,-2.28567 -0.18861,-0.31032 -0.53153,-0.77541 -0.76204,-1.03353 -0.23051,-0.25813 -0.52763,-0.7313 -0.66025,-1.0515 -0.13263,-0.3202 -0.31633,-0.58218 -0.4082,-0.58218 -0.0919,0 -0.31415,-0.28642 -0.49393,-0.63649 -0.17981,-0.35007 -0.51255,-0.82116 -0.73945,-1.04688 -0.22691,-0.22571 -0.67695,-0.87827 -1.0001,-1.45012 -0.32314,-0.57186 -0.78502,-1.23379 -1.02641,-1.47095 -0.24138,-0.23717 -0.57306,-0.75233 -0.73704,-1.14481 -0.16398,-0.39247 -0.38284,-0.71359 -0.48634,-0.71359 -0.1035,0 -0.33217,-0.28642 -0.50814,-0.63649 -0.17596,-0.35007 -0.47494,-0.76868 -0.6644,-0.93025 -0.18945,-0.16158 -0.44168,-0.58577 -0.56052,-0.94266 -0.2017,-0.6058 -0.17269,-0.69033 0.43677,-1.27298 0.93596,-0.89479 1.94064,-1.70124 2.11942,-1.70124 0.0845,0 0.15368,-0.11319 0.15368,-0.25154 0,-0.13834 0.24236,-0.39489 0.53857,-0.57011 0.29621,-0.17521 0.97922,-0.72022 1.51779,-1.21114 0.53857,-0.49091 1.22263,-1.09362 1.52012,-1.33936 0.2975,-0.24574 0.8303,-0.71119 1.18399,-1.03433 0.35371,-0.32314 1.11513,-0.98411 1.69207,-1.46883 1.66555,-1.39932 2.37259,-2.01973 2.92355,-2.56539 0.28272,-0.27998 0.68297,-0.56929 0.88949,-0.64292 0.2804,-0.1 0.3191,-0.19023 0.15287,-0.35647 -0.15499,-0.155 -1.60737,-0.21497 -4.78195,-0.19748 l -4.55936,0.0251 -0.43125,0.49766 c -0.2372,0.27372 -0.51348,0.49766 -0.61397,0.49766 -0.10049,0 -0.32708,0.22033 -0.50351,0.48961 -0.17646,0.26929 -0.40479,0.48961 -0.50745,0.48961 -0.10264,0 -0.84332,0.66097 -1.64595,1.46883 -0.80265,0.80785 -1.51914,1.46883 -1.59223,1.46883 -0.0731,0 -0.3062,0.22032 -0.51802,0.48961 -0.27201,0.3458 -0.57524,0.4896 -1.03238,0.4896 -1.22547,0 -1.37427,-0.66142 -0.96938,-4.30856 0.1734,-1.56185 0.39597,-3.01599 0.49462,-3.23142 0.0986,-0.21542 0.17597,-0.61201 0.17183,-0.88129 -0.009,-0.61594 0.0944,-1.53581 0.57531,-5.09194 0.2112,-1.56185 0.38834,-3.17375 0.39365,-3.58199 l 0.01,-0.74225 -0.83234,0.0189 c -0.45778,0.0104 -1.27298,0.0181 -1.81155,0.017 -2.38973,-0.004 -3.56438,0.10298 -4.08769,0.37396 -0.98549,0.51027 -1.39476,1.57546 -1.76739,4.59982 -0.18582,1.508 -0.42236,3.27059 -0.52565,3.91688 -0.10328,0.64628 -0.45484,3.20204 -0.78124,5.67946 -0.32639,2.47742 -0.62891,4.68066 -0.67225,4.89609 -0.0433,0.21543 -0.34678,2.59493 -0.67427,5.28778 -0.32751,2.69285 -0.65292,5.16048 -0.72313,5.48362 -0.0702,0.32314 -0.15826,0.89599 -0.19563,1.27299 -0.0374,0.37699 -0.11243,0.9939 -0.16678,1.3709 -0.27426,1.90234 -0.34351,2.41852 -0.60077,4.47802 -0.15293,1.2242 -0.23711,2.29205 -0.18707,2.37301 0.0927,0.14992 7.7051,0.10166 7.85656,-0.0498 z m -90.89211,-5.02591 c -2.67025,-0.65007 -4.03554,-2.85311 -4.03078,-6.50413 0.002,-1.84562 0.10219,-2.67839 0.40718,-3.39869 0.0912,-0.21543 0.23163,-0.65607 0.31202,-0.97922 0.25628,-1.03026 0.63447,-1.81858 1.31025,-2.73112 1.60024,-2.16089 3.32039,-3.08686 5.49532,-2.95815 3.54882,0.21001 5.10683,2.13059 4.94524,6.09606 -0.0847,2.07946 -0.37361,3.72895 -1.02953,5.87867 -0.82937,2.71821 -2.27298,3.96 -5.31402,4.57114 -1.14627,0.23036 -1.24883,0.23161 -2.09568,0.0254 z"
         style="fill:#000000;stroke-width:1" />
    </g>
  </g>
</svg>
