<?xml version="1.0" encoding="UTF-8" standalone="no"?>
<!-- Generator: Adobe Illustrator 21.0.0, SVG Export Plug-In . SVG Version: 6.00 Build 0)  -->

<svg
   xmlns:dc="http://purl.org/dc/elements/1.1/"
   xmlns:cc="http://creativecommons.org/ns#"
   xmlns:rdf="http://www.w3.org/1999/02/22-rdf-syntax-ns#"
   xmlns:svg="http://www.w3.org/2000/svg"
   xmlns="http://www.w3.org/2000/svg"
   xmlns:sodipodi="http://sodipodi.sourceforge.net/DTD/sodipodi-0.dtd"
   xmlns:inkscape="http://www.inkscape.org/namespaces/inkscape"
   version="1.1"
   id="Layer_1"
   x="0px"
   y="0px"
   viewBox="0 0 499.99999 134.45009"
   xml:space="preserve"
   sodipodi:docname="Game Boy Player logo.svg"
   width="500"
   height="134.45009"
   inkscape:version="0.92.0 r15299"><metadata
     id="metadata38"><rdf:RDF><cc:Work
         rdf:about=""><dc:format>image/svg+xml</dc:format><dc:type
           rdf:resource="http://purl.org/dc/dcmitype/StillImage" /><dc:title></dc:title></cc:Work></rdf:RDF></metadata><defs
     id="defs36" /><sodipodi:namedview
     pagecolor="#ffffff"
     bordercolor="#000000"
     borderopacity="1"
     objecttolerance="10"
     gridtolerance="10"
     guidetolerance="10"
     inkscape:pageopacity="0"
     inkscape:pageshadow="2"
     inkscape:window-width="1440"
     inkscape:window-height="837"
     id="namedview34"
     showgrid="false"
     fit-margin-top="0"
     fit-margin-left="0"
     fit-margin-right="0"
     fit-margin-bottom="0"
     inkscape:showpageshadow="false"
     inkscape:zoom="1.5094123"
     inkscape:cx="241.76842"
     inkscape:cy="57.997144"
     inkscape:window-x="-8"
     inkscape:window-y="-8"
     inkscape:window-maximized="1"
     inkscape:current-layer="Layer_1" /><style
     type="text/css"
     id="style10">
	.st0{fill:#010101;}
</style><g
     id="g31"
     transform="matrix(1.1477255,0,0,1.1469419,0.05076432,0.0284981)"><path
       class="st0"
       d="m 20.1,103.7 v 13.4 H 11.3 V 83 h 36.2 c 2.2,0 3.4,1.5 3.6,4.6 V 100 c 0,2.2 -1.2,3.5 -3.7,3.6 z m 0,-8.2 h 21.3 c 0.8,0 1.3,-0.7 1.3,-2 v -1.4 c 0,-1.3 -0.4,-2 -1.3,-2 H 20.1 Z"
       id="path12"
       inkscape:connector-curvature="0"
       style="fill:#010101" /><path
       class="st0"
       d="m 95.9,83 v 26.6 h 27.2 v 7.5 h -36 V 83 Z"
       id="path14"
       inkscape:connector-curvature="0"
       style="fill:#010101" /><path
       class="st0"
       d="m 189.3,117.1 -13.9,-24.7 -9.8,17.5 h 9.8 v 7.2 h -25.1 l 3.1,-5 17.4,-29 h 9.3 l 19.4,34.1 h -10.2 z"
       id="path16"
       inkscape:connector-curvature="0"
       style="fill:#010101" /><path
       class="st0"
       d="M 243.1,117.1 V 102.2 L 224,83.1 h 14.1 l 10,10 10,-10 h 14.1 l -19.1,19.1 v 14.9 z"
       id="path18"
       inkscape:connector-curvature="0"
       style="fill:#010101" /><path
       class="st0"
       d="m 305.5,117.1 v -34 h 36.2 v 7 h -27.4 v 6.1 h 16 v 7.4 h -16 v 6.1 h 27.2 v 7.5 h -36 z"
       id="path20"
       inkscape:connector-curvature="0"
       style="fill:#010101" /><path
       class="st0"
       d="m 400.4,103.7 h -8.9 v 13.4 h -8.8 V 83 h 36.2 c 2.2,0 3.4,1.5 3.6,4.6 V 100 c 0,2.2 -1.2,3.5 -3.7,3.6 h -6.3 L 426.1,117 H 414 Z m -8.9,-8.2 h 21.3 c 0.9,0 1.3,-0.7 1.3,-2 v -1.4 c 0,-1.3 -0.4,-2 -1.3,-2 h -21.3 z"
       id="path22"
       inkscape:connector-curvature="0"
       style="fill:#010101" /><polygon
       id="_43443024"
       class="st0"
       points="375.4,0.6 375.4,0.6 393.9,0.6 403,21.6 416.7,0.6 435.6,0.6 408.9,42.1 404.6,74.5 387.5,74.5 392.5,37.6 "
       style="fill:#010101" /><polygon
       id="_43441624"
       class="st0"
       points="250,0.6 207,0.6 196.7,74.5 239.6,74.5 239.6,74.5 241.8,58.1 215.8,58.1 217.4,45.3 240,45.3 242.3,28.9 220,28.9 221.5,17.1 247.5,17.1 "
       style="fill:#010101" /><path
       id="_43775888"
       class="st0"
       d="M 86.1,38 91.8,22.7 93.6,38 Z M 80,52.6 h 15.5 l 2.7,21.9 h 28 l 13,-40.1 6.4,40.1 h 14.8 l 16.4,-42.4 2.7,42.4 h 16.4 L 191.3,0.6 h -19.6 l -15.3,39 -5.9,-39 H 132.9 L 112.8,61.2 105.3,0.6 H 83.6 L 59.2,62 62.4,38.1 H 32.8 l -2.1,14.6 h 13 l -0.9,5 c -2.3,1.4 -7.5,1.6 -9.6,1.6 C 31.1,59.3 15.9,57.9 16.6,41.5 17.3,25 39.2,9.8 65.1,18.2 L 67.7,2.5 c -17.4,-6 -62.9,-2.6 -67.5,38 -2.8,24 19.1,35.4 33.7,35.1 8.4,0.5 18,-2.7 21.4,-4.6 l -1.1,3.5 h 17.3 z"
       inkscape:connector-curvature="0"
       style="fill:#010101" /><path
       id="_44102912"
       class="st0"
       d="m 357,0 c -11.9,-0.5 -29,6.4 -34.7,34 -5.7,27.6 9.6,38.8 23.7,40.6 14.1,1.8 34,-7.1 37.6,-33.5 C 387.3,14.5 374.3,0.6 357,0 Z m -1.9,15.7 c 4.8,0 15,3.2 12.5,22.3 -2.5,19.2 -14.4,21.4 -18.7,21 -4.3,-0.5 -13.2,-3.4 -10.7,-21 2.6,-17.5 11.9,-22.5 16.9,-22.3 z"
       inkscape:connector-curvature="0"
       style="fill:#010101" /><path
       id="_44104296"
       class="st0"
       d="m 284.9,28.9 h 9.6 c 7.1,0 8.4,-4.6 8.7,-6.4 0.2,-1.8 -1.8,-5.5 -5.5,-5.5 h -11.2 z m -4.1,29.2 h 13 c 7.1,0 8.7,-5.5 8.9,-7.3 0.2,-1.8 -1.8,-5.5 -5.5,-5.5 H 282.6 Z M 261.7,74.5 272,0.6 h 31.5 c 7.5,0 18.5,8.7 17.1,20.3 -1.4,11.6 -5,12.3 -7.5,14.1 3.9,3.4 7.8,8.9 6.2,19.1 -1.8,10.4 -10.2,20.4 -25,20.4 z"
       inkscape:connector-curvature="0"
       style="fill:#010101" /><path
       id="_44106160"
       class="st0"
       d="m 413.9,63.3 c -2.8,0 -5.1,2.3 -5.1,5.1 0,2.8 2.3,5.1 5.1,5.1 2.8,0 5.1,-2.3 5.1,-5.1 -0.1,-2.8 -2.3,-5.1 -5.1,-5.1 v -0.7 c 3.2,0 5.8,2.6 5.8,5.8 0,3.2 -2.6,5.8 -5.8,5.8 -3.2,0 -5.8,-2.6 -5.8,-5.8 0,-3.2 2.6,-5.8 5.8,-5.8 z"
       inkscape:connector-curvature="0"
       style="fill:#010101" /><path
       id="_42975192"
       class="st0"
       d="m 412.5,65.7 h 1.8 c 0.8,0 1.7,0.1 1.7,1.1 0,1.3 -1.4,1.2 -2.3,1.2 h -1.2 v 0.6 h 1.5 l 1.8,3 h 0.9 l -2,-3 c 1.1,0 2,-0.5 2,-1.8 0,-0.5 -0.2,-1.1 -0.7,-1.4 -0.5,-0.3 -1,-0.3 -1.6,-0.3 h -2.8 v 6.5 h 0.8 v -5.9 z"
       inkscape:connector-curvature="0"
       style="fill:#010101" /></g></svg>