<?xml version="1.0" encoding="UTF-8" standalone="no"?>
<svg
   xmlns:dc="http://purl.org/dc/elements/1.1/"
   xmlns:cc="http://creativecommons.org/ns#"
   xmlns:rdf="http://www.w3.org/1999/02/22-rdf-syntax-ns#"
   xmlns:svg="http://www.w3.org/2000/svg"
   xmlns="http://www.w3.org/2000/svg"
   width="182"
   height="300"
   viewBox="0 0 48.154165 79.375002"
   version="1.1"
   id="svg1946">
  <defs
     id="defs1940" />
  <metadata
     id="metadata1943">
    <rdf:RDF>
      <cc:Work
         rdf:about="">
        <dc:format>image/svg+xml</dc:format>
        <dc:type
           rdf:resource="http://purl.org/dc/dcmitype/StillImage" />
        <dc:title></dc:title>
      </cc:Work>
    </rdf:RDF>
  </metadata>
  <g
     id="g1177">
    <path
       d="M 15.170279,3.0388136 H 5.2904577 V 2.251892e-6 h 9.8798213 z"
       style="fill:#cfd0d2;fill-opacity:1;fill-rule:nonzero;stroke:none;stroke-width:0.23759279"
       id="path14" />
    <path
       id="path26"
       style="fill:#e6e7e8;fill-opacity:1;fill-rule:nonzero;stroke:none;stroke-width:0.23759279"
       d="M 38.128182,79.375001 H 1.9886543 C 0.89050157,79.375001 2.565788e-6,78.484741 2.565788e-6,77.38635 V 4.0920613 H 48.151984 V 69.351199 c 0,5.535913 -4.487652,10.023802 -10.023802,10.023802" />
    <g
       id="g28"
       transform="matrix(0.23759279,0,0,-0.23759279,5.8032786,37.958349)">
      <path
         d="m 0,0 c -6.007,0 -10.894,4.887 -10.894,10.894 v 113.482 c 0,6.007 4.887,10.894 10.894,10.894 h 153.816 c 6.007,0 10.894,-4.887 10.894,-10.894 V 30.935 C 164.71,13.877 150.833,0 133.775,0 Z"
         style="fill:#cfd0d2;fill-opacity:1;fill-rule:nonzero;stroke:none"
         id="path30" />
    </g>
    <path
       id="path34"
       style="fill:#55535f;fill-opacity:1;fill-rule:nonzero;stroke:none;stroke-width:0.23759279"
       d="M 37.587325,37.483163 H 5.8033499 c -1.1670571,0 -2.113151,-0.946094 -2.113151,-2.113151 V 8.4075068 c 0,-1.1670552 0.9460939,-2.1131492 2.113151,-2.1131492 H 42.348922 c 1.166818,0 2.113151,0.946094 2.113151,2.1131492 V 30.608416 c 0,3.796733 -3.078253,6.874747 -6.874748,6.874747" />
    <path
       d="M 36.843256,33.614154 H 11.487353 v -23.51052 h 25.355903 z"
       style="fill:#36363d;fill-opacity:1;fill-rule:nonzero;stroke:none;stroke-width:0.23759279"
       id="path36" />
    <path
       d="M 36.367596,33.139444 H 11.962064 V 10.580009 h 24.405532 z"
       style="fill:#8bac0f;fill-opacity:1;fill-rule:nonzero;stroke:none;stroke-width:0.23759279"
       id="path38" />
    <path
       id="path42"
       style="fill:#cfd0d2;fill-opacity:1;fill-rule:nonzero;stroke:none;stroke-width:0.23759279"
       d="m 8.1130601,59.830691 c -0.5999224,0 -1.0881756,-0.488254 -1.0881756,-1.088176 V 56.468752 H 4.7513602 c -0.6001594,0 -1.0881756,-0.488253 -1.0881756,-1.088174 v -3.473845 c 0,-0.601348 0.4880162,-1.090314 1.0881756,-1.090314 h 2.2735243 v -2.274 c 0,-0.599921 0.4882532,-1.087937 1.0881756,-1.087937 h 3.4736059 c 0.601348,0 1.090551,0.488016 1.090551,1.087937 v 2.274 h 2.273763 c 0.60016,0 1.088176,0.488966 1.088176,1.090314 v 3.473845 c 0,0.599921 -0.488016,1.088174 -1.088176,1.088174 h -2.273763 v 2.273763 c 0,0.599922 -0.489203,1.088176 -1.090551,1.088176 z" />
    <path
       id="path46"
       style="fill:#4d4e56;fill-opacity:1;fill-rule:nonzero;stroke:none;stroke-width:0.23759279"
       d="m 15.326474,51.906828 v 3.473606 c 0,0.206705 -0.168692,0.375397 -0.375397,0.375397 h -2.986542 v 2.986778 c 0,0.208845 -0.16869,0.375398 -0.377772,0.375398 H 8.1131564 c -0.2067058,0 -0.3753972,-0.166553 -0.3753972,-0.375398 V 55.755831 H 4.7509807 c -0.2090811,0 -0.3751585,-0.168692 -0.3751585,-0.375397 v -3.473606 c 0,-0.209081 0.1660774,-0.377773 0.3751585,-0.377773 h 2.9867785 v -2.986541 c 0,-0.206469 0.1686914,-0.375159 0.3753972,-0.375159 h 3.4736066 c 0.209082,0 0.377772,0.16869 0.377772,0.375159 v 2.986541 h 2.986542 c 0.206705,0 0.375397,0.168692 0.375397,0.377773" />
    <path
       id="path58"
       style="fill:#cfd0d2;fill-opacity:1;fill-rule:nonzero;stroke:none;stroke-width:0.23759279"
       d="m 24.21741,78.254799 h -5.624772 c -0.603962,0 -1.093402,-0.489916 -1.093402,-1.093878 0,-0.60396 0.48944,-1.093639 1.093402,-1.093639 h 5.624772 c 0.604199,0 1.093877,0.489679 1.093877,1.093639 0,0.603962 -0.489678,1.093878 -1.093877,1.093878" />
    <path
       d="M 47.624029,3.4819247 H 0.52814819 V 4.0920613 H 47.624029 Z"
       style="fill:#cfd0d2;fill-opacity:1;fill-rule:nonzero;stroke:none;stroke-width:0.23759279"
       id="path60" />
    <path
       id="path64"
       style="fill:#e6e7e8;fill-opacity:1;fill-rule:nonzero;stroke:none;stroke-width:0.23759279"
       d="M 3.7498602,9.669503e-5 H 2.0646151 C 0.92440665,9.669503e-5 1.7006871e-4,0.92433328 1.7006871e-4,2.0645399 V 3.4820192 H 3.7498602 Z" />
    <path
       d="M 4.4194443,0.26776815 H 3.7499066 V 3.4819247 h 0.6695377 z"
       style="fill:#cfd0d2;fill-opacity:1;fill-rule:nonzero;stroke:none;stroke-width:0.23759279"
       id="path66" />
    <path
       id="path70"
       style="fill:#e6e7e8;fill-opacity:1;fill-rule:nonzero;stroke:none;stroke-width:0.23759279"
       d="m 44.402342,9.669503e-5 h 1.685245 c 1.140209,0 2.064445,0.92423658497 2.064445,2.06444320497 v 1.4174793 h -3.74969 z" />
    <path
       d="m 43.732735,0.26776815 h 0.669536 V 3.4819247 h -0.669536 z"
       style="fill:#cfd0d2;fill-opacity:1;fill-rule:nonzero;stroke:none;stroke-width:0.23759279"
       id="path72" />
    <path
       d="M 7.588931,1.0052568 H 7.0317753 V 2.251892e-6 H 7.588931 Z"
       style="fill:#e6e7e8;fill-opacity:1;fill-rule:nonzero;stroke:none;stroke-width:0.23759279"
       id="path74" />
    <path
       d="M 8.660237,1.0052568 H 8.1030813 V 2.251892e-6 H 8.660237 Z"
       style="fill:#e6e7e8;fill-opacity:1;fill-rule:nonzero;stroke:none;stroke-width:0.23759279"
       id="path76" />
    <path
       id="path80"
       style="fill:#e6e7e8;fill-opacity:1;fill-rule:nonzero;stroke:none;stroke-width:0.23759279"
       d="M 43.733425,9.669503e-5 V 3.4820192 H 4.4194211 V 9.669503e-5 H 6.5173649 V 1.0072526 C 6.0105795,1.0179443 5.603346,1.4320685 5.603346,1.9409923 v 0.00191 c 0,0.5160515 0.4195877,0.9373036 0.9356393,0.9373036 h 7.4333287 c 0.517951,0 0.937778,-0.4212521 0.937778,-0.9373036 v -0.00191 c 0,-0.5160516 -0.419827,-0.9356411 -0.937778,-0.9356411 H 9.1746028 V 9.669503e-5 Z" />
    <path
       id="path84"
       style="fill:#cfd0d2;fill-opacity:1;fill-rule:nonzero;stroke:none;stroke-width:0.23759279"
       d="m 33.362879,77.708622 -3.410408,-6.204736 c -0.127587,-0.231653 -0.04277,-0.52223 0.188412,-0.649817 0.231653,-0.127112 0.522704,-0.04253 0.649815,0.188886 l 3.410408,6.204736 c 0.12735,0.231416 0.04277,0.522467 -0.188649,0.64958 -0.231414,0.127348 -0.522467,0.04277 -0.649578,-0.188649" />
    <path
       id="path88"
       style="fill:#cfd0d2;fill-opacity:1;fill-rule:nonzero;stroke:none;stroke-width:0.23759279"
       d="m 35.642748,76.439448 -3.410407,-6.204499 c -0.127588,-0.231653 -0.04277,-0.522466 0.188412,-0.649815 0.231653,-0.12735 0.522704,-0.04253 0.649815,0.188648 l 3.410408,6.204975 c 0.12735,0.231414 0.043,0.522227 -0.188649,0.649578 -0.231415,0.127111 -0.522467,0.04277 -0.649579,-0.188887" />
    <path
       id="path92"
       style="fill:#cfd0d2;fill-opacity:1;fill-rule:nonzero;stroke:none;stroke-width:0.23759279"
       d="m 37.922616,75.170512 -3.410407,-6.204499 c -0.127588,-0.231653 -0.04277,-0.522466 0.188649,-0.649815 0.231416,-0.12735 0.522467,-0.04277 0.649578,0.188648 l 3.410408,6.204974 c 0.12735,0.231415 0.043,0.522228 -0.188649,0.649578 -0.231415,0.127112 -0.522228,0.04277 -0.649579,-0.188886" />
    <path
       id="path96"
       style="fill:#cfd0d2;fill-opacity:1;fill-rule:nonzero;stroke:none;stroke-width:0.23759279"
       d="m 40.202486,73.901553 -3.410407,-6.204736 c -0.127349,-0.231416 -0.04277,-0.52223 0.188649,-0.649578 0.231416,-0.127351 0.522466,-0.04277 0.649578,0.188647 l 3.410645,6.204975 c 0.127113,0.231414 0.04277,0.522228 -0.188887,0.649578 -0.231414,0.127112 -0.522227,0.04277 -0.649578,-0.188886" />
    <path
       id="path100"
       style="fill:#cfd0d2;fill-opacity:1;fill-rule:nonzero;stroke:none;stroke-width:0.23759279"
       d="m 42.482356,72.632618 -3.410408,-6.204736 c -0.127348,-0.231653 -0.04277,-0.522229 0.18865,-0.649816 0.231653,-0.127112 0.522466,-0.04253 0.649817,0.188886 l 3.410405,6.204975 c 0.127114,0.231177 0.04277,0.522227 -0.188886,0.649341 -0.231414,0.127348 -0.522228,0.043 -0.649578,-0.18865" />
    <path
       id="path104"
       style="fill:#cfd0d2;fill-opacity:1;fill-rule:nonzero;stroke:none;stroke-width:0.23759279"
       d="m 45.11954,71.16484 -3.410408,-6.204736 c -0.127587,-0.231653 -0.043,-0.522229 0.188413,-0.649817 0.231653,-0.127111 0.522703,-0.04253 0.649815,0.188887 l 3.410407,6.204974 c 0.127351,0.231178 0.04277,0.522228 -0.188649,0.649341 -0.231414,0.127349 -0.522466,0.043 -0.649578,-0.188649" />
    <path
       d="M 16.516956,8.0800564 H 5.6470857 V 7.8122905 H 16.516956 Z"
       style="fill:#884269;fill-opacity:1;fill-rule:nonzero;stroke:none;stroke-width:0.23759279"
       id="path106" />
    <path
       d="M 16.516956,8.8165953 H 5.6470857 V 8.5488276 H 16.516956 Z"
       style="fill:#375073;fill-opacity:1;fill-rule:nonzero;stroke:none;stroke-width:0.23759279"
       id="path108" />
    <path
       d="M 42.832496,8.0800564 H 38.122932 V 7.8122905 h 4.709564 z"
       style="fill:#884269;fill-opacity:1;fill-rule:nonzero;stroke:none;stroke-width:0.23759279"
       id="path110" />
    <path
       d="M 42.832496,8.8165953 H 38.122932 V 8.5488276 h 4.709564 z"
       style="fill:#375073;fill-opacity:1;fill-rule:nonzero;stroke:none;stroke-width:0.23759279"
       id="path112" />
    <path
       id="path116"
       style="fill:#cfd0d2;fill-opacity:1;fill-rule:nonzero;stroke:none;stroke-width:0.23759279"
       d="m 27.931889,65.518306 -3.875614,1.865341 c -0.408422,0.196727 -0.899526,0.02471 -1.096253,-0.383951 -0.19649,-0.408659 -0.02471,-0.899763 0.383949,-1.096253 l 3.875376,-1.865341 c 0.408898,-0.196964 0.899526,-0.02495 1.096253,0.383951 0.196727,0.408422 0.02495,0.899526 -0.383711,1.096253" />
    <path
       id="path120"
       style="fill:#cfd0d2;fill-opacity:1;fill-rule:nonzero;stroke:none;stroke-width:0.23759279"
       d="m 19.792932,65.518306 -3.875376,1.865341 c -0.408659,0.196727 -0.899526,0.02471 -1.096253,-0.383951 -0.196727,-0.408659 -0.02471,-0.899763 0.383712,-1.096253 l 3.875615,-1.865341 c 0.408659,-0.196964 0.899526,-0.02495 1.096253,0.383951 0.196488,0.408422 0.02495,0.899526 -0.383951,1.096253" />
    <path
       id="path172"
       style="fill:#36363d;fill-opacity:1;fill-rule:nonzero;stroke:none;stroke-width:0.23759279"
       d="m 7.5425292,18.138953 c 0,-0.368744 -0.29913,-0.667874 -0.6678734,-0.667874 -0.3687434,0 -0.6676364,0.29913 -0.6676364,0.667874 0,0.368743 0.298893,0.667873 0.6676364,0.667873 0.3687434,0 0.6678734,-0.29913 0.6678734,-0.667873" />
    <path
       id="path176"
       style="fill:#cfd0d2;fill-opacity:1;fill-rule:nonzero;stroke:none;stroke-width:0.23759279"
       d="m 29.9505,57.192341 v 0 c -1.038042,-2.107922 -0.17083,-4.658482 1.937332,-5.696762 l 8.05701,-3.967563 c 2.10816,-1.038279 4.658718,-0.170828 5.696999,1.937332 1.038042,2.108161 0.17083,4.658482 -1.937332,5.696525 l -8.057247,3.9678 c -2.10816,1.038042 -4.65872,0.17083 -5.696762,-1.937332" />
    <path
       id="path180"
       style="fill:#884269;fill-opacity:1;fill-rule:nonzero;stroke:none;stroke-width:0.23759279"
       d="m 36.83373,55.31108 c -8.91e-4,-1.693324 -1.374474,-3.065184 -3.067798,-3.064234 -1.693325,7.13e-4 -3.065423,1.374237 -3.064711,3.067798 8.91e-4,1.693325 1.374713,3.065184 3.068037,3.064235 1.693323,-8.91e-4 3.065422,-1.374474 3.064472,-3.067799" />
    <path
       id="path184"
       style="fill:#884269;fill-opacity:1;fill-rule:nonzero;stroke:none;stroke-width:0.23759279"
       d="m 44.947832,51.459014 c -8.91e-4,-1.693562 -1.374474,-3.065423 -3.067799,-3.064471 -1.693324,7.12e-4 -3.065184,1.374473 -3.064471,3.067798 8.91e-4,1.693561 1.374474,3.065421 3.068035,3.064471 1.693086,-8.91e-4 3.065184,-1.374474 3.064235,-3.067798" />
    <path
       id="path216"
       style="fill:#b2b2b2;fill-opacity:1;fill-rule:nonzero;stroke:none;stroke-width:0.23759279"
       d="m 34.200701,77.248498 c 0.128301,0.230465 0.043,0.520328 -0.187697,0.648629 -0.07366,0.04039 -0.152061,0.0594 -0.230466,0.0594 -0.16869,0 -0.332629,-0.09005 -0.420301,-0.247095 l -0.772178,-1.404174 0.836089,-0.467821 z" />
    <path
       id="path220"
       style="fill:#b2b2b2;fill-opacity:1;fill-rule:nonzero;stroke:none;stroke-width:0.23759279"
       d="m 36.481735,75.979801 c 0.125686,0.230464 0.04277,0.520328 -0.190312,0.648628 -0.07342,0.04039 -0.151822,0.0594 -0.230464,0.0594 -0.168455,0 -0.332394,-0.09028 -0.417927,-0.249473 L 34.86848,75.02943 35.702431,74.561372 Z" />
    <path
       id="path224"
       style="fill:#b2b2b2;fill-opacity:1;fill-rule:nonzero;stroke:none;stroke-width:0.23759279"
       d="m 38.760227,74.708774 c 0.1283,0.232603 0.04277,0.522467 -0.187697,0.650767 -0.07389,0.04039 -0.152298,0.0594 -0.230467,0.0594 -0.168689,0 -0.332628,-0.09028 -0.420539,-0.249473 l -0.776928,-1.413676 0.83395,-0.46782 z" />
    <path
       id="path228"
       style="fill:#b2b2b2;fill-opacity:1;fill-rule:nonzero;stroke:none;stroke-width:0.23759279"
       d="m 41.041022,73.43984 c 0.125925,0.232841 0.043,0.522703 -0.190075,0.651004 -0.07342,0.04039 -0.151822,0.0594 -0.228089,0.0594 -0.16869,0 -0.332629,-0.09029 -0.420539,-0.249472 l -0.781442,-1.420807 0.836089,-0.468056 z" />
    <path
       id="path232"
       style="fill:#b2b2b2;fill-opacity:1;fill-rule:nonzero;stroke:none;stroke-width:0.23759279"
       d="m 43.322055,72.171118 c 0.125686,0.232841 0.04277,0.522703 -0.190311,0.651003 -0.07342,0.04039 -0.151822,0.0594 -0.22809,0.0594 -0.170829,0 -0.334768,-0.09029 -0.420302,-0.249473 l -0.784056,-1.427695 0.833951,-0.468295 z" />
    <path
       id="path236"
       style="fill:#b2b2b2;fill-opacity:1;fill-rule:nonzero;stroke:none;stroke-width:0.23759279"
       d="m 45.769214,71.35394 c -0.07389,0.04039 -0.152297,0.0594 -0.228089,0.0594 -0.171304,0 -0.335006,-0.09028 -0.420539,-0.249473 l -0.788809,-1.432684 0.833951,-0.468057 0.791184,1.439813 c 0.1283,0.232602 0.04277,0.522703 -0.187698,0.651003" />
    <g
       id="g240"
       transform="matrix(0.23759279,0,0,-0.23759279,-101.78311,110.96534)" />
    <g
       aria-label="404
Looks like you've
made a wrong turn"
       style="font-style:normal;font-weight:normal;font-size:10.58333302px;line-height:0.25;font-family:sans-serif;letter-spacing:0px;word-spacing:0px;fill:#0f380f;fill-opacity:1;stroke:none;stroke-width:0.26458332"
       id="text135">
      <path
         d="m 18.168055,16.81277 v -2.116667 h -0.705556 v 0.705556 h -0.705555 v 1.411111 z m 0,1.411111 v -0.705556 h -2.116667 v -2.822222 h 0.705556 v -0.705556 h 2.822222 v 2.822223 h 0.705556 v 0.705555 h -0.705556 v 0.705556 z"
         style="font-style:normal;font-variant:normal;font-weight:normal;font-stretch:normal;font-size:5.64444447px;line-height:1;font-family:'Early GameBoy';-inkscape-font-specification:'Early GameBoy';text-align:center;text-anchor:middle;stroke-width:0.26458332;fill:#0f380f;fill-opacity:1"
         id="path201" />
      <path
         d="m 24.518055,17.518325 v -2.822222 h -1.411111 v 2.822222 z m -2.116667,0.705556 v -0.705556 h -0.705555 v -2.822222 h 0.705555 v -0.705556 h 2.822223 v 0.705556 h 0.705555 v 2.822222 h -0.705555 v 0.705556 z"
         style="font-style:normal;font-variant:normal;font-weight:normal;font-stretch:normal;font-size:5.64444447px;line-height:1;font-family:'Early GameBoy';-inkscape-font-specification:'Early GameBoy';text-align:center;text-anchor:middle;stroke-width:0.26458332;fill:#0f380f;fill-opacity:1"
         id="path203" />
      <path
         d="m 29.456944,16.81277 v -2.116667 h -0.705556 v 0.705556 h -0.705555 v 1.411111 z m 0,1.411111 v -0.705556 h -2.116667 v -2.822222 h 0.705556 v -0.705556 h 2.822222 v 2.822223 h 0.705556 v 0.705555 h -0.705556 v 0.705556 z"
         style="font-style:normal;font-variant:normal;font-weight:normal;font-stretch:normal;font-size:5.64444447px;line-height:1;font-family:'Early GameBoy';-inkscape-font-specification:'Early GameBoy';text-align:center;text-anchor:middle;stroke-width:0.26458332;fill:#0f380f;fill-opacity:1"
         id="path205" />
      <path
         d="M 13.229166,25.127383 V 24.06905 h 0.352778 v 0.881944 h 0.705555 v 0.176389 z"
         style="font-style:normal;font-variant:normal;font-weight:normal;font-stretch:normal;font-size:1.41111112px;line-height:0;font-family:'Early GameBoy';-inkscape-font-specification:'Early GameBoy';text-align:center;text-anchor:middle;stroke-width:0.26458332;fill:#0f380f;fill-opacity:1"
         id="path207" />
      <path
         d="m 15.345833,24.950994 v -0.705556 h -0.352778 v 0.705556 z m -0.529167,0.176389 v -0.176389 h -0.176389 v -0.705556 h 0.176389 V 24.06905 h 0.705556 v 0.176388 h 0.176388 v 0.705556 h -0.176388 v 0.176389 z"
         style="font-style:normal;font-variant:normal;font-weight:normal;font-stretch:normal;font-size:1.41111112px;line-height:0;font-family:'Early GameBoy';-inkscape-font-specification:'Early GameBoy';text-align:center;text-anchor:middle;stroke-width:0.26458332;fill:#0f380f;fill-opacity:1"
         id="path209" />
      <path
         d="m 16.756944,24.950994 v -0.705556 h -0.352778 v 0.705556 z m -0.529167,0.176389 v -0.176389 h -0.176389 v -0.705556 h 0.176389 V 24.06905 h 0.705556 v 0.176388 h 0.176389 v 0.705556 h -0.176389 v 0.176389 z"
         style="font-style:normal;font-variant:normal;font-weight:normal;font-stretch:normal;font-size:1.41111112px;line-height:0;font-family:'Early GameBoy';-inkscape-font-specification:'Early GameBoy';text-align:center;text-anchor:middle;stroke-width:0.26458332;fill:#0f380f;fill-opacity:1"
         id="path211" />
      <path
         d="M 17.4625,25.127383 V 24.06905 h 0.352777 v 0.352777 h 0.176389 v -0.176389 h 0.176389 V 24.06905 h 0.352778 v 0.176388 h -0.176389 v 0.176389 h -0.176389 v 0.352778 h 0.176389 v 0.176389 h 0.176389 v 0.176389 h -0.352778 v -0.176389 h -0.176389 v -0.176389 h -0.176389 v 0.352778 z"
         style="font-style:normal;font-variant:normal;font-weight:normal;font-stretch:normal;font-size:1.41111112px;line-height:0;font-family:'Early GameBoy';-inkscape-font-specification:'Early GameBoy';text-align:center;text-anchor:middle;stroke-width:0.26458332;fill:#0f380f;fill-opacity:1"
         id="path213" />
      <path
         d="m 18.87361,24.950994 v -0.176389 h 0.176389 v 0.176389 z m 0.176389,0.176389 v -0.176389 h 0.352778 V 24.598216 H 19.049999 V 24.421827 H 18.87361 v -0.176389 h 0.176389 V 24.06905 h 0.705556 v 0.176388 h -0.529167 v 0.176389 h 0.529167 v 0.176389 h 0.176389 v 0.352778 h -0.176389 v 0.176389 z"
         style="font-style:normal;font-variant:normal;font-weight:normal;font-stretch:normal;font-size:1.41111112px;line-height:0;font-family:'Early GameBoy';-inkscape-font-specification:'Early GameBoy';text-align:center;text-anchor:middle;stroke-width:0.26458332;fill:#0f380f;fill-opacity:1"
         id="path215" />
      <path
         d="M 20.990277,25.127383 V 24.06905 h 0.352778 v 0.881944 h 0.705556 v 0.176389 z"
         style="font-style:normal;font-variant:normal;font-weight:normal;font-stretch:normal;font-size:1.41111112px;line-height:0;font-family:'Early GameBoy';-inkscape-font-specification:'Early GameBoy';text-align:center;text-anchor:middle;stroke-width:0.26458332;fill:#0f380f;fill-opacity:1"
         id="path217" />
      <path
         d="m 22.577777,25.127383 v -0.176389 h 0.176389 V 24.245438 H 22.577777 V 24.06905 h 0.705556 v 0.176388 h -0.176389 v 0.705556 h 0.176389 v 0.176389 z"
         style="font-style:normal;font-variant:normal;font-weight:normal;font-stretch:normal;font-size:1.41111112px;line-height:0;font-family:'Early GameBoy';-inkscape-font-specification:'Early GameBoy';text-align:center;text-anchor:middle;stroke-width:0.26458332;fill:#0f380f;fill-opacity:1"
         id="path219" />
      <path
         d="M 23.812499,25.127383 V 24.06905 h 0.352778 v 0.352777 h 0.176389 v -0.176389 h 0.176389 V 24.06905 h 0.352777 v 0.176388 h -0.176389 v 0.176389 h -0.176388 v 0.352778 h 0.176388 v 0.176389 h 0.176389 v 0.176389 h -0.352777 v -0.176389 h -0.176389 v -0.176389 h -0.176389 v 0.352778 z"
         style="font-style:normal;font-variant:normal;font-weight:normal;font-stretch:normal;font-size:1.41111112px;line-height:0;font-family:'Early GameBoy';-inkscape-font-specification:'Early GameBoy';text-align:center;text-anchor:middle;stroke-width:0.26458332;fill:#0f380f;fill-opacity:1"
         id="path221" />
      <path
         d="M 25.223611,25.127383 V 24.06905 h 1.058333 v 0.176388 h -0.705555 v 0.176389 h 0.529166 v 0.176389 h -0.529166 v 0.352778 h 0.705555 v 0.176389 z"
         style="font-style:normal;font-variant:normal;font-weight:normal;font-stretch:normal;font-size:1.41111112px;line-height:0;font-family:'Early GameBoy';-inkscape-font-specification:'Early GameBoy';text-align:center;text-anchor:middle;stroke-width:0.26458332;fill:#0f380f;fill-opacity:1"
         id="path223" />
      <path
         d="M 27.693054,25.127383 V 24.598216 H 27.516666 V 24.421827 H 27.340277 V 24.06905 h 0.352777 v 0.352777 h 0.352778 V 24.06905 h 0.352778 v 0.352777 h -0.176389 v 0.176389 h -0.176389 v 0.529167 z"
         style="font-style:normal;font-variant:normal;font-weight:normal;font-stretch:normal;font-size:1.41111112px;line-height:0;font-family:'Early GameBoy';-inkscape-font-specification:'Early GameBoy';text-align:center;text-anchor:middle;stroke-width:0.26458332;fill:#0f380f;fill-opacity:1"
         id="path225" />
      <path
         d="m 29.456944,24.950994 v -0.705556 h -0.352778 v 0.705556 z m -0.529167,0.176389 v -0.176389 h -0.176388 v -0.705556 h 0.176388 V 24.06905 h 0.705556 v 0.176388 h 0.176389 v 0.705556 h -0.176389 v 0.176389 z"
         style="font-style:normal;font-variant:normal;font-weight:normal;font-stretch:normal;font-size:1.41111112px;line-height:0;font-family:'Early GameBoy';-inkscape-font-specification:'Early GameBoy';text-align:center;text-anchor:middle;stroke-width:0.26458332;fill:#0f380f;fill-opacity:1"
         id="path227" />
      <path
         d="M 30.1625,24.950994 V 24.06905 h 0.176389 v 0.881944 z m 0.176389,0.176389 v -0.176389 h 0.352778 v -0.176389 h 0.176389 V 24.06905 h 0.352778 v 0.881944 h -0.176389 v 0.176389 z"
         style="font-style:normal;font-variant:normal;font-weight:normal;font-stretch:normal;font-size:1.41111112px;line-height:0;font-family:'Early GameBoy';-inkscape-font-specification:'Early GameBoy';text-align:center;text-anchor:middle;stroke-width:0.26458332;fill:#0f380f;fill-opacity:1"
         id="path229" />
      <path
         d="m 32.102777,24.421827 v -0.176389 h -0.176389 v -0.352777 h 0.352778 v 0.529166 z"
         style="font-style:normal;font-variant:normal;font-weight:normal;font-stretch:normal;font-size:1.41111112px;line-height:0;font-family:'Early GameBoy';-inkscape-font-specification:'Early GameBoy';text-align:center;text-anchor:middle;stroke-width:0.26458332;fill:#0f380f;fill-opacity:1"
         id="path231" />
      <path
         d="M 33.161111,24.950994 V 24.774605 H 33.3375 v 0.176389 z M 32.984722,24.774605 V 24.06905 h 0.176389 v 0.705555 z m 0.352778,0.352778 v -0.176389 h 0.176389 v -0.176389 h 0.176389 V 24.06905 h 0.352777 v 0.705555 h -0.176388 v 0.176389 h -0.176389 v 0.176389 z"
         style="font-style:normal;font-variant:normal;font-weight:normal;font-stretch:normal;font-size:1.41111112px;line-height:0;font-family:'Early GameBoy';-inkscape-font-specification:'Early GameBoy';text-align:center;text-anchor:middle;stroke-width:0.26458332;fill:#0f380f;fill-opacity:1"
         id="path233" />
      <path
         d="M 34.395832,25.127383 V 24.06905 h 1.058333 v 0.176388 H 34.74861 v 0.176389 h 0.529167 v 0.176389 H 34.74861 v 0.352778 h 0.705555 v 0.176389 z"
         style="font-style:normal;font-variant:normal;font-weight:normal;font-stretch:normal;font-size:1.41111112px;line-height:0;font-family:'Early GameBoy';-inkscape-font-specification:'Early GameBoy';text-align:center;text-anchor:middle;stroke-width:0.26458332;fill:#0f380f;fill-opacity:1"
         id="path235" />
      <path
         d="m 13.581944,29.401087 v -1.058333 h 0.176389 v 0.176389 h 0.176389 v 0.176388 h 0.176388 v -0.176388 h 0.176389 v -0.176389 h 0.352778 v 1.058333 H 14.287499 V 28.87192 H 14.11111 v 0.176389 H 13.934722 V 28.87192 h -0.176389 v 0.529167 z"
         style="font-style:normal;font-variant:normal;font-weight:normal;font-stretch:normal;font-size:1.41111112px;line-height:0;font-family:'Early GameBoy';-inkscape-font-specification:'Early GameBoy';text-align:center;text-anchor:middle;stroke-width:0.26458332;fill:#0f380f;fill-opacity:1"
         id="path237" />
      <path
         d="m 14.993055,29.401087 v -0.881944 h 0.176389 v 0.352777 h 0.352778 v -0.352777 h -0.352778 v -0.176389 h 0.705555 v 0.176389 h 0.176389 v 0.881944 h -0.529166 v -0.352778 h -0.352778 v 0.352778 z"
         style="font-style:normal;font-variant:normal;font-weight:normal;font-stretch:normal;font-size:1.41111112px;line-height:0;font-family:'Early GameBoy';-inkscape-font-specification:'Early GameBoy';text-align:center;text-anchor:middle;stroke-width:0.26458332;fill:#0f380f;fill-opacity:1"
         id="path239" />
      <path
         d="m 16.933333,29.224698 v -0.705555 h -0.352778 v 0.705555 z m -0.529167,0.176389 v -1.058333 h 0.881944 v 0.176389 h 0.176389 v 0.705555 H 17.28611 v 0.176389 z"
         style="font-style:normal;font-variant:normal;font-weight:normal;font-stretch:normal;font-size:1.41111112px;line-height:0;font-family:'Early GameBoy';-inkscape-font-specification:'Early GameBoy';text-align:center;text-anchor:middle;stroke-width:0.26458332;fill:#0f380f;fill-opacity:1"
         id="path241" />
      <path
         d="m 17.815277,29.401087 v -1.058333 h 1.058334 v 0.176389 h -0.705556 v 0.176388 h 0.529167 v 0.176389 h -0.529167 v 0.352778 h 0.705556 v 0.176389 z"
         style="font-style:normal;font-variant:normal;font-weight:normal;font-stretch:normal;font-size:1.41111112px;line-height:0;font-family:'Early GameBoy';-inkscape-font-specification:'Early GameBoy';text-align:center;text-anchor:middle;stroke-width:0.26458332;fill:#0f380f;fill-opacity:1"
         id="path243" />
      <path
         d="m 19.931944,29.401087 v -0.881944 h 0.176389 v 0.352777 h 0.352777 v -0.352777 h -0.352777 v -0.176389 h 0.705555 v 0.176389 h 0.176389 v 0.881944 H 20.46111 v -0.352778 h -0.352777 v 0.352778 z"
         style="font-style:normal;font-variant:normal;font-weight:normal;font-stretch:normal;font-size:1.41111112px;line-height:0;font-family:'Early GameBoy';-inkscape-font-specification:'Early GameBoy';text-align:center;text-anchor:middle;stroke-width:0.26458332;fill:#0f380f;fill-opacity:1"
         id="path245" />
      <path
         d="M 22.048611,29.401087 V 28.342754 H 22.225 v 0.529166 h 0.176389 v -0.176389 h 0.176389 v 0.176389 h 0.176389 v -0.529166 h 0.352777 v 1.058333 h -0.352777 v -0.176389 h -0.176389 v -0.176389 h -0.176389 v 0.176389 H 22.225 v 0.176389 z"
         style="font-style:normal;font-variant:normal;font-weight:normal;font-stretch:normal;font-size:1.41111112px;line-height:0;font-family:'Early GameBoy';-inkscape-font-specification:'Early GameBoy';text-align:center;text-anchor:middle;stroke-width:0.26458332;fill:#0f380f;fill-opacity:1"
         id="path247" />
      <path
         d="m 24.165277,29.401087 v -0.176389 h 0.352778 v 0.176389 z m 0,-0.529167 V 28.519143 H 23.8125 v 0.352777 z m -0.705555,0.529167 v -1.058333 h 0.881944 v 0.176389 h 0.176389 v 0.352777 h -0.176389 v 0.176389 h -0.176389 v 0.176389 H 23.988889 V 29.048309 H 23.8125 v 0.352778 z"
         style="font-style:normal;font-variant:normal;font-weight:normal;font-stretch:normal;font-size:1.41111112px;line-height:0;font-family:'Early GameBoy';-inkscape-font-specification:'Early GameBoy';text-align:center;text-anchor:middle;stroke-width:0.26458332;fill:#0f380f;fill-opacity:1"
         id="path249" />
      <path
         d="m 25.576388,29.224698 v -0.705555 h -0.352777 v 0.705555 z m -0.529166,0.176389 v -0.176389 h -0.176389 v -0.705555 h 0.176389 v -0.176389 h 0.705555 v 0.176389 h 0.176389 v 0.705555 h -0.176389 v 0.176389 z"
         style="font-style:normal;font-variant:normal;font-weight:normal;font-stretch:normal;font-size:1.41111112px;line-height:0;font-family:'Early GameBoy';-inkscape-font-specification:'Early GameBoy';text-align:center;text-anchor:middle;stroke-width:0.26458332;fill:#0f380f;fill-opacity:1"
         id="path251" />
      <path
         d="m 26.281944,29.401087 v -1.058333 h 0.176389 v 0.176389 h 0.176388 v 0.176388 h 0.176389 v 0.176389 h 0.176389 v -0.529166 h 0.352778 v 1.058333 H 26.987499 V 29.224698 H 26.81111 V 29.048309 H 26.634721 V 28.87192 h -0.176388 v 0.529167 z"
         style="font-style:normal;font-variant:normal;font-weight:normal;font-stretch:normal;font-size:1.41111112px;line-height:0;font-family:'Early GameBoy';-inkscape-font-specification:'Early GameBoy';text-align:center;text-anchor:middle;stroke-width:0.26458332;fill:#0f380f;fill-opacity:1"
         id="path253" />
      <path
         d="m 27.869443,29.401087 v -0.176389 h -0.176389 v -0.705555 h 0.176389 v -0.176389 h 0.705556 v 0.176389 h 0.176389 v 0.176388 H 28.39861 v -0.176388 h -0.352778 v 0.705555 H 28.39861 V 29.048309 H 28.222221 V 28.87192 h 0.529167 v 0.529167 z"
         style="font-style:normal;font-variant:normal;font-weight:normal;font-stretch:normal;font-size:1.41111112px;line-height:0;font-family:'Early GameBoy';-inkscape-font-specification:'Early GameBoy';text-align:center;text-anchor:middle;stroke-width:0.26458332;fill:#0f380f;fill-opacity:1"
         id="path255" />
      <path
         d="m 30.162499,29.401087 v -0.881944 h -0.352778 v -0.176389 h 1.058334 v 0.176389 h -0.352778 v 0.881944 z"
         style="font-style:normal;font-variant:normal;font-weight:normal;font-stretch:normal;font-size:1.41111112px;line-height:0;font-family:'Early GameBoy';-inkscape-font-specification:'Early GameBoy';text-align:center;text-anchor:middle;stroke-width:0.26458332;fill:#0f380f;fill-opacity:1"
         id="path257" />
      <path
         d="m 31.220833,29.224698 v -0.881944 h 0.176389 v 0.881944 z m 0.176389,0.176389 V 29.224698 H 31.75 v -0.176389 h 0.176389 v -0.705555 h 0.352777 v 0.881944 h -0.176388 v 0.176389 z"
         style="font-style:normal;font-variant:normal;font-weight:normal;font-stretch:normal;font-size:1.41111112px;line-height:0;font-family:'Early GameBoy';-inkscape-font-specification:'Early GameBoy';text-align:center;text-anchor:middle;stroke-width:0.26458332;fill:#0f380f;fill-opacity:1"
         id="path259" />
      <path
         d="m 33.337499,29.401087 v -0.176389 h 0.352777 v 0.176389 z m 0,-0.529167 v -0.352777 h -0.352778 v 0.352777 z m -0.705556,0.529167 v -1.058333 h 0.881944 v 0.176389 h 0.176389 v 0.352777 h -0.176389 v 0.176389 h -0.176388 v 0.176389 H 33.16111 v -0.176389 h -0.176389 v 0.352778 z"
         style="font-style:normal;font-variant:normal;font-weight:normal;font-stretch:normal;font-size:1.41111112px;line-height:0;font-family:'Early GameBoy';-inkscape-font-specification:'Early GameBoy';text-align:center;text-anchor:middle;stroke-width:0.26458332;fill:#0f380f;fill-opacity:1"
         id="path261" />
      <path
         d="m 34.043055,29.401087 v -1.058333 h 0.176389 v 0.176389 h 0.176389 v 0.176388 h 0.176389 v 0.176389 h 0.176388 v -0.529166 h 0.352778 v 1.058333 H 34.74861 V 29.224698 H 34.572222 V 29.048309 H 34.395833 V 28.87192 h -0.176389 v 0.529167 z"
         style="font-style:normal;font-variant:normal;font-weight:normal;font-stretch:normal;font-size:1.41111112px;line-height:0;font-family:'Early GameBoy';-inkscape-font-specification:'Early GameBoy';text-align:center;text-anchor:middle;stroke-width:0.26458332;fill:#0f380f;fill-opacity:1"
         id="path263" />
    </g>
  </g>
</svg>
