<?xml version="1.0" encoding="UTF-8" standalone="no"?>
<svg
   xmlns:dc="http://purl.org/dc/elements/1.1/"
   xmlns:cc="http://creativecommons.org/ns#"
   xmlns:rdf="http://www.w3.org/1999/02/22-rdf-syntax-ns#"
   xmlns:svg="http://www.w3.org/2000/svg"
   xmlns="http://www.w3.org/2000/svg"
   viewBox="0 0 36 36"
   version="1.1"
   id="svg16">
  <metadata
     id="metadata22">
    <rdf:RDF>
      <cc:Work
         rdf:about="">
        <dc:format>image/svg+xml</dc:format>
        <dc:type
           rdf:resource="http://purl.org/dc/dcmitype/StillImage" />
        <dc:title></dc:title>
      </cc:Work>
    </rdf:RDF>
  </metadata>
  <path
     d="M 8 0 C 6.895431 0 6 0.8954305 6 2 L 6 34 C 6 35.104569 6.895431 36 8 36 L 24 36 A 6 6 0 0 0 30 30 L 30 2 C 30 0.8954305 29.104569 0 28 0 L 8 0 z M 9 2 L 27 2 A 1 1 0 0 1 28 3 L 28 15 A 2 2 0 0 1 26 17 L 9 17 A 1 1 0 0 1 8 16 L 8 3 A 1 1 0 0 1 9 2 z M 12 4 L 12 15 L 24 15 L 24 4 L 12 4 z M 11.710938 21.023438 L 13.267578 21.023438 C 13.546578 21.023438 13.773435 21.250297 13.773438 21.529297 L 13.773438 24.226562 C 14.672187 24.228929 15.571523 24.228431 16.472656 24.228516 C 16.751656 24.228516 16.978516 24.453422 16.978516 24.732422 L 16.978516 26.291016 C 16.978516 26.570016 16.751656 26.796875 16.472656 26.796875 L 13.773438 26.796875 L 13.771484 29.494141 C 13.771484 29.773141 13.546578 30 13.267578 30 L 11.708984 30 C 11.429984 30 11.203125 29.773141 11.203125 29.494141 L 11.203125 26.796875 C 11.027745 26.796175 10.845677 26.799422 10.673828 26.794922 L 8.5058594 26.794922 C 8.2268594 26.794922 8 26.568062 8 26.289062 L 8 24.730469 C 8 24.451469 8.2268594 24.226562 8.5058594 24.226562 L 11.203125 24.226562 C 11.205496 23.32847 11.204994 22.429773 11.205078 21.529297 C 11.205078 21.250297 11.431936 21.023436 11.710938 21.023438 z M 26.396484 23 A 1.603 1.603 0 0 1 28 24.603516 A 1.603 1.603 0 0 1 26.396484 26.205078 A 1.603 1.603 0 0 1 24.794922 24.603516 A 1.603 1.603 0 0 1 26.396484 23 z M 21.603516 24.794922 A 1.603 1.603 0 0 1 23.205078 26.396484 A 1.603 1.603 0 0 1 21.603516 28 A 1.603 1.603 0 0 1 20 26.396484 A 1.603 1.603 0 0 1 21.603516 24.794922 z "
     style="fill:#000000" />
</svg>
