<?xml version="1.0" encoding="UTF-8" standalone="no"?>
<!-- Created with Inkscape (http://www.inkscape.org/) -->

<svg
   xmlns:dc="http://purl.org/dc/elements/1.1/"
   xmlns:cc="http://creativecommons.org/ns#"
   xmlns:rdf="http://www.w3.org/1999/02/22-rdf-syntax-ns#"
   xmlns:svg="http://www.w3.org/2000/svg"
   xmlns="http://www.w3.org/2000/svg"
   xmlns:sodipodi="http://sodipodi.sourceforge.net/DTD/sodipodi-0.dtd"
   xmlns:inkscape="http://www.inkscape.org/namespaces/inkscape"
   width="512"
   height="512"
   viewBox="0 0 135.46666 135.46666"
   version="1.1"
   id="svg16"
   inkscape:export-filename="/home/rowan/Documents/test2.png"
   inkscape:export-xdpi="96"
   inkscape:export-ydpi="96"
   inkscape:version="0.92.3 (2405546, 2018-03-11)"
   sodipodi:docname="gameboy.svg">
  <defs
     id="defs10" />
  <sodipodi:namedview
     id="base"
     pagecolor="#ffffff"
     bordercolor="#666666"
     borderopacity="1.0"
     inkscape:pageopacity="0.0"
     inkscape:pageshadow="2"
     inkscape:zoom="1.4"
     inkscape:cx="121.56718"
     inkscape:cy="293.05298"
     inkscape:document-units="mm"
     inkscape:current-layer="layer1"
     showgrid="true"
     units="px"
     inkscape:pagecheckerboard="false"
     showborder="true"
     inkscape:showpageshadow="true"
     inkscape:window-width="1920"
     inkscape:window-height="1047"
     inkscape:window-x="0"
     inkscape:window-y="33"
     inkscape:window-maximized="1">
    <inkscape:grid
       type="xygrid"
       id="grid18"
       empspacing="4" />
  </sodipodi:namedview>
  <metadata
     id="metadata13">
    <rdf:RDF>
      <cc:Work
         rdf:about="">
        <dc:format>image/svg+xml</dc:format>
        <dc:type
           rdf:resource="http://purl.org/dc/dcmitype/StillImage" />
        <dc:title></dc:title>
      </cc:Work>
    </rdf:RDF>
  </metadata>
  <g
     inkscape:label="Layer 1"
     inkscape:groupmode="layer"
     id="layer1"
     transform="translate(0,-161.53335)">
    <path
       style="stroke-width:0.26458332;fill:#00acaa;fill-opacity:1"
       d="M 0,161.53336 H 135.46666 V 297.00002 H 0 Z"
       id="rect1053" />
    <g
       id="g1045"
       transform="matrix(2.4253472,0,0,2.4253471,24.077084,185.61044)"
       inkscape:export-xdpi="96"
       inkscape:export-ydpi="96">
      <path
         id="path13"
         d="M 8,0 C 6.895431,0 6,0.8954305 6,2 v 32 c 0,1.104569 0.895431,2 2,2 h 16 a 6,6 0 0 0 6,-6 V 2 C 30,0.8954305 29.104569,0 28,0 Z"
         style="fill:#d6dade;fill-opacity:1;stroke:none;stroke-width:2;stroke-linecap:butt;stroke-linejoin:miter;stroke-miterlimit:4;stroke-dasharray:none;stroke-opacity:1"
         inkscape:connector-curvature="0" />
      <circle
         style="fill:#b14789;fill-opacity:1"
         cx="21.603001"
         cy="26.396999"
         r="1.603"
         id="circle854" />
      <path
         style="fill:#000000"
         d="m 11.710934,21.02339 c -0.279,0 -0.505859,0.22686 -0.505859,0.50586 -8.4e-5,0.900476 3.71e-4,1.799172 -0.002,2.697265 H 8.5058594 C 8.2268594,24.226515 8,24.451422 8,24.730422 v 1.558593 c 0,0.279 0.2268594,0.50586 0.5058594,0.50586 h 2.1679686 c 0.171849,0.0045 0.353917,0.0013 0.529297,0.002 v 2.697266 c 0,0.279 0.226859,0.505859 0.505859,0.505859 h 1.558594 c 0.279,0 0.503906,-0.226859 0.503906,-0.505859 l 0.0019,-2.697266 h 2.699219 c 0.279,0 0.505859,-0.226859 0.505859,-0.505859 v -1.558594 c 0,-0.279 -0.226859,-0.503906 -0.505859,-0.503906 -0.901133,-8.5e-5 -1.800467,3.67e-4 -2.699219,-0.002 v -2.697265 c 0,-0.279 -0.226859,-0.50586 -0.505859,-0.50586 z"
         id="path900"
         inkscape:connector-curvature="0" />
      <circle
         id="circle915"
         r="1.603"
         cy="24.603001"
         cx="26.396999"
         style="fill:#b14789;fill-opacity:1" />
      <path
         style="fill:#76818c;fill-opacity:1;stroke:none;stroke-width:2;stroke-linecap:butt;stroke-linejoin:miter;stroke-miterlimit:4;stroke-dasharray:none;stroke-opacity:1"
         d="M 9,2 A 1,1 0 0 0 8,3 v 13 a 1,1 0 0 0 1,1 h 17 a 2,2 0 0 0 2,-2 V 3 A 1,1 0 0 0 27,2 Z"
         id="path1129"
         inkscape:connector-curvature="0" />
      <rect
         style="fill:#8aa100;fill-opacity:1;stroke:none;stroke-width:2;stroke-linecap:butt;stroke-linejoin:miter;stroke-miterlimit:4;stroke-dasharray:none;stroke-opacity:1"
         id="rect1000"
         width="12"
         height="11"
         x="12"
         y="4" />
    </g>
  </g>
</svg>
