<?xml version="1.0" encoding="utf-8"?>
<!-- Generator: Adobe Illustrator 18.0.0, SVG Export Plug-In . SVG Version: 6.00 Build 0)  -->
<!DOCTYPE svg PUBLIC "-//W3C//DTD SVG 1.1//EN" "http://www.w3.org/Graphics/SVG/1.1/DTD/svg11.dtd">
<svg version="1.1" id="Layer_1" xmlns="http://www.w3.org/2000/svg" xmlns:xlink="http://www.w3.org/1999/xlink" x="0px" y="0px"
	 viewBox="0 0 2608.5 284.4" enable-background="new 0 0 2608.5 284.4" xml:space="preserve">
<path d="M339.9,143.8l-10.1-52.2l-23.3,52.2H339.9 M706.3,276.5H651L643.6,110l-71.9,166.4h-36.9L504.2,126l-47.9,150.5h-94
	L348.2,196h-63.9L248,276.5h-57.7l118.6-269H377l36.3,217.5L483.9,7.4h54.7l27,147.4L628.3,7.4h66.3L706.3,276.5"/>
<polyline points="864.8,276.5 874.1,218.7 777.6,218.7 785.2,170.8 869.1,170.8 878.3,113.1 793.5,113.1 800.9,65.2 897.4,65.2 
	906.6,7.4 753.6,7.4 710.6,276.5 864.8,276.5 "/>
<polyline points="1583,7.4 1518.4,7.4 1463.8,95.3 1429.4,7.4 1366.1,7.4 1431.2,149.3 1411.2,276.5 1466.4,276.5 1483.4,164.1 
	1583,7.4 "/>
<path d="M1254.7,225.3c29.2,13.1,65-12.6,80-57.4c14.9-44.8,3.3-91.7-26-104.7c-29.2-13.1-65,12.6-79.9,57.4
	C1213.8,165.3,1225.4,212.2,1254.7,225.3 M1171,118.8c17.2-74.4,80.7-123.2,142-109.1c61.3,14.2,97,85.9,79.9,160.3
	c-17.2,74.4-80.8,123.2-142,109.1C1189.6,265,1153.8,193.2,1171,118.8"/>
<path d="M72.3,31.4C19.7,64-5.7,113.7,1.1,181.3c7.8,78.4,109.4,127.8,195.4,78c7.5-4.3,4.6-3.7,7.4-6.1L221,143.8H118.4l-7.9,50.4
	h42.9l-4.9,27c-24.6,9.8-66.3,6.1-84.2-25.8C53.1,175.2,42.6,130,90.1,88.5c38.7-33.8,105.7-40,144.4-22.2c0,0,4.9-28.2,8.6-54.6
	C168.8-14.1,111,7.4,72.3,31.4"/>
<path d="M990.7,8.9l-42.7,267c0,0,88.4,0,124.4,0c51.2,0,126.1-75.5,57.9-137.2c70.1-72.5,0.6-129.3-36.6-129.8
	c-29.9-0.5-103.6,0-103.6,0H990.7 M1021.2,170.5c0,0,11.6,0,46.3,0c43.9,0,42.7,53.6-6.1,53.6c-30.5,0-48.8,0-48.8,0L1021.2,170.5
	 M1038.3,65.6c0,0,1.2,0,36,0c39,0,31.1,50-6.1,50c-30.5,0-38.4,0-38.4,0L1038.3,65.6"/>
<path d="M1523,254.5v-7.7h6.2c2.8,0,5.6,0.4,5.6,3.6c0,4.6-4.7,4.1-7.9,4.1H1523 M1530.8,257c4-0.1,7.4-1.7,7.4-6.5
	c0-1.9-1-4-2.7-4.9c-1.8-1.3-3.7-1.3-5.6-1.3h-10.1v23h3.2V257h4.5l6.5,10.4h3.8L1530.8,257 M1528,276.5c11.4,0,20.5-9.1,20.5-20.6
	c0-11.3-9.2-20.5-20.5-20.5c-11.4,0-20.6,9.1-20.6,20.5C1507.5,267.3,1516.7,276.5,1528,276.5 M1528,273.1
	c-9.7,0.1-17.2-7.4-17.2-17.2c0-9.6,7.5-17.2,17.2-17.2c9.8,0,17.1,7.6,17.1,17.2C1545.2,265.6,1537.8,273.1,1528,273.1"/>
<path d="M2184.8,239.4c-41,0-65.3-31.6-65.3-68.2c0-36.5,24.4-68.1,65.3-68.1c20.6,0,37,8.1,48.3,20.7l32.1-32.1
	c-19.8-20.6-47.7-33.6-80.4-33.6c-65.3,0-111.6,51.6-111.6,113.1c0,61.6,46.3,113.2,111.6,113.2c32.8,0,60.8-13,80.6-33.8
	l-32.1-32.1C2222,231.3,2205.6,239.4,2184.8,239.4"/>
<path d="M2497,240.9c-40.8-0.1-65.1-31.6-65.1-68.1c0-36.6,24.3-68.1,65.3-68.1c40.8,0.1,65.1,31.6,65.1,68.1
	C2562.3,209.3,2537.9,240.8,2497,240.9z M2608.5,171.3c0-61.5-46.1-113-111.3-113.2h-0.1c-0.1,0-0.1,0-0.2,0v0
	c-65.2,0.1-111.4,51.7-111.4,113.2c0,61.5,46.1,113,111.4,113.1h0c0.1,0,0.2,0,0.2,0v0C2562.5,284.3,2608.5,232.8,2608.5,171.3"/>
<rect x="2007.3" y="65.3" width="48" height="211.5"/>
<path d="M2373.8,63.9c-0.2,0-4.4,0-4.5,0c-49.9,0.3-90.2,39.9-90.6,89.8c0,0.2,0,6.5,0,6.7c0,33.4,0,116.4,0,116.4h48
	c0,0,0-94.4,0-120.1c0-24.6,19.8-44.6,44.3-44.8c0.2,0,1.9,0,2,0c6.7,0,13.1,0,13.1,0v-48H2373.8z"/>
<path d="M1982.3,164.2c-0.3-57.4-46.9-103.9-104.3-103.9c-33.7,0-63.6,16-82.7,40.7c-19.1-24.8-49-40.7-82.7-40.7
	c-57.4,0-104,46.3-104.3,103.6c0,0.2,0,7.9,0,8.1v104.4h45.9V164.7c0-32.3,26.1-58.4,58.4-58.4c32.1,0,58.1,25.9,58.4,57.9
	c0,0.2,0,9.4,0,9.5v102.8h48.5V171.5c0-0.2,0-7.1,0-7.2c0.3-32,26.3-57.9,58.4-57.9c32.3,0,58.4,26.1,58.4,58.4v111.8h45.9V176.3
	C1982.3,176.1,1982.3,164.4,1982.3,164.2z"/>
</svg>
