<?xml version="1.0" encoding="UTF-8" standalone="no"?>
<svg
   xmlns:dc="http://purl.org/dc/elements/1.1/"
   xmlns:cc="http://creativecommons.org/ns#"
   xmlns:rdf="http://www.w3.org/1999/02/22-rdf-syntax-ns#"
   xmlns:svg="http://www.w3.org/2000/svg"
   xmlns="http://www.w3.org/2000/svg"
   xml:space="preserve"
   id="svg2"
   height="190"
   width="1518"
   version="1.1"><metadata
     id="metadata8"><rdf:RDF><cc:Work
         rdf:about=""><dc:format>image/svg+xml</dc:format><dc:type
           rdf:resource="http://purl.org/dc/dcmitype/StillImage" /><dc:title></dc:title></cc:Work></rdf:RDF></metadata><defs
     id="defs6" /><g
     id="g81"><g
       id="g64"
       transform="translate(940.00021,-53.661742)"><path
         style="fill:#4e4ba8;fill-opacity:1;fill-rule:nonzero;stroke:none;stroke-width:0.125"
         id="path14"
         d="m 205.885,179.62387 c 0,0 -9.4975,16.57138 -30.35,14.61388 -24.4825,-2.51025 -27.3675,-24.01425 -27.3675,-24.01425 0,0 -3.35,-15.82463 11.72875,-29.6035 15.2675,-12.84763 31.18625,-10.8935 31.18625,-10.8935 0,0 10.705,1.02487 16.20125,18.71237 7.0725,22.52975 -1.39875,31.185 -1.39875,31.185 z m 36.9575,-44.59025 C 239.77125,125.7265 231.67,116.88175 231.67,116.88175 c 0,0 -12.19125,-15.828 -36.1175,-21.223 -20.48125,-4.285 -36.5875,4.74625 -36.5875,4.74625 0,0 -14.61125,5.86375 -25.6,17.966 -17.50025,16.84762 -22.5295,41.42525 -22.5295,41.42525 0,0 -6.69925,21.41113 3.91112,38.355 L 126.29,212.11362 c 16.29125,13.5938 33.70125,14.98784 33.70125,14.98784 0,0 14.0575,3.16601 30.44125,-1.11524 14.33375,-2.88622 24.76375,-9.96385 24.76375,-9.96385 0,0 23.7375,-13.12262 30.25375,-39.93362 l -2.6075,-41.05513" /><path
         style="fill:#daac06;fill-opacity:1;fill-rule:nonzero;stroke:none;stroke-width:0.125"
         id="path16"
         d="m 408.36,184.46762 c -26.345,15.82475 -42.915,-1.49262 -42.915,-1.49262 0,0 -7.35375,-4.83888 -8.9375,-19.54738 -1.11625,-17.03662 15.825,-25.87887 15.825,-25.87887 0,0 8.94,-5.49363 20.11,-4.65625 11.17375,0.83737 14.70625,0.0922 23.7375,6.79637 8.56125,7.7275 8.0075,13.40375 8.0075,13.40375 0,0 3.06875,19.17975 -15.8275,31.375 z M 452.9475,130.1015 C 436.66375,103.47875 407.99125,99.475 407.99125,99.475 c 0,0 -9.12625,-3.07375 -28.67375,-0.46875 -36.6775,6.9825 -49.43375,35.19 -49.43375,35.19 0,0 -13.1275,20.6665 -7.9125,45.7075 l 16.0125,31.65137 c 11.82125,11.07613 16.66,11.07613 17.4075,11.73238 15.64,7.07372 33.79125,2.97607 33.79125,2.97607 0,0 22.90125,-2.2334 43.8475,-18.52495 16.75625,-12.2875 24.02125,-30.34612 24.02125,-30.34612 l -4.10375,-47.291" /><path
         style="fill:#00938a;fill-opacity:1;fill-rule:nonzero;stroke:none;stroke-width:0.125"
         id="path18"
         d="m 492.4275,136.0585 -1.7725,-24.29638 c 0,0 17.03375,-0.3735 24.11125,0.83738 13.9675,2.14112 13.215,6.05225 13.215,6.05225 0,0 -0.46125,4.93162 -11.07375,9.77587 -11.545,5.5825 -24.48,7.63088 -24.48,7.63088 z m -35.37625,41.3355 c 0,0 0.55375,14.891 -1.7725,18.52337 -3.16625,6.794 -2.7,13.40525 -2.7,13.40525 0,0 -2.14125,20.10745 21.135,23.45999 16.01125,-0.0952 17.96625,-13.40874 18.2425,-19.08499 0.9325,-4.46775 0.55875,-25.229 0.55875,-25.229 l 20.76,16.94388 c 0,0 15.085,12.66012 23.925,20.01611 9.22625,7.25879 11.54125,8.5625 11.54125,8.5625 0,0 1.9625,2.32617 9.0275,1.48877 5.68875,0.0977 10.89875,-5.02637 10.89875,-5.02637 0,0 6.60625,-4.83837 8.27625,-13.31101 2.05125,-10.05375 -5.76125,-14.98738 -5.76125,-14.98738 0,0 -28.8575,-23.27387 -48.40875,-39.2875 13.12,-7.16512 19.45375,-12.10162 19.45375,-12.10162 0,0 18.25125,-12.09963 22.1575,-30.625 5.40625,-20.3885 -9.96,-28.3935 -9.96,-28.3935 0,0 -9.59,-6.89 -17.69375,-10.5225 -20.385,-9.95875 -39.3725,-7.9125 -39.3725,-7.9125 0,0 -26.99875,-1.86 -44.595,19.83125 -8.095,10.5175 -3.06875,24.29713 -3.06875,24.29713 0,0 1.00375,2.20937 3.2525,12.66062 4.53125,21.021 4.10375,47.2925 4.10375,47.2925" /><path
         style="fill:#6eb122;fill-opacity:1;fill-rule:nonzero;stroke:none;stroke-width:0.125"
         id="path20"
         d="m 321.97125,179.90612 c -7.845,-1.72362 -20.38875,1.48788 -20.38875,1.48788 0,0 -17.4975,6.42225 -20.2025,6.3295 -1.02,-1.48575 -3.255,-30.06838 -2.6025,-41.5185 0.37375,-20.20025 -1.30375,-36.67875 -1.30375,-36.67875 0,0 -0.8375,-19.45625 -11.2675,-30.99875 C 253.91875,66.1475 245.355,71.4525 240.4225,74.43 228.59625,85.04375 234.09,97.98 234.09,97.98 l 6.145,17.4125 c 0,0 2.98125,7.44625 2.6075,19.64113 l 2.6075,41.05512 c 0,5.49275 4.4675,42.44875 4.4675,42.44875 0,0 0.46375,12.01122 12.01,14.1499 11.82125,1.95264 23.45625,-3.90869 28.3925,-6.23243 4.9325,-2.33007 11.4525,-4.37747 11.4525,-4.37747 0,0 5.39625,-1.209 10.79375,-1.67775 12.66375,-1.21088 17.225,-3.44238 17.225,-3.44238 0,0 4.90375,-0.73725 8.1925,-5.40225 3.28875,-4.66412 7.27375,-26.53125 -16.0125,-31.649" /><path
         style="fill:#b80a41;fill-opacity:1;fill-rule:nonzero;stroke:none;stroke-width:0.125"
         id="path22"
         d="M 114.74662,198.14637 C 106.43112,195.661 96.8755,197.3085 96.8755,197.3085 c 0,0 -26.9995,2.6055 -41.05475,-0.37113 C 34.036125,193.121 34.778375,169.6625 34.778375,169.6625 c 0,0 -0.74225,-15.54738 12.38525,-36.585 16.19625,-25.97375 34.06975,-30.62875 34.06975,-30.62875 0,0 4.47025,-1.6725 8.65975,0.55875 2.604875,15.08025 17.219125,14.9875 17.219125,14.9875 0,0 21.04275,1.399 20.01525,-24.10625 C 124.7075,72.93875 104.50487,70.0525 96.03325,68.1 70.620625,63.5375 54.1435,77.12875 54.1435,77.12875 c 0,0 -17.036125,9.21875 -37.421875,41.33263 -13.8744625,19.92137 -15.54682,35.56099 -15.54682,35.56099 0,0 -1.674805,3.7265 -1.02539125,20.29788 -0.3686525,12.9375 4.47021125,22.33737 4.47021125,22.33737 0,0 7.355963,22.25488 30.6275,31.37598 14.147875,5.86522 34.816875,5.77147 34.816875,5.77147 0,0 20.014625,-0.27782 35.3735,-1.11767 8.37887,0.65137 12.38275,-3.72363 12.38275,-3.72363 0,0 9.39975,-6.14252 8.46975,-16.85015 0,0 -1.82175,-11.05762 -11.54337,-13.96725" /></g><g
       id="g57"
       transform="matrix(2.6166932,0,0,2.6166932,-49.815698,15.008638)"><path
         style="fill:#2e3192;fill-opacity:1;fill-rule:nonzero;stroke:none;stroke-width:0.125"
         id="path24"
         d="m 94.507375,31.92625 -2.246125,-11.5925 -5.183125,11.5925 z m 81.381375,29.4675 h -12.275 l -1.64,-36.97 -15.96,36.97 H 137.8275 L 131.00875,27.97 120.36675,61.39375 H 99.495125 L 96.3555,43.525 H 82.1685 L 74.119125,61.39375 H 61.294375 L 87.625,1.6425 h 15.14163 L 110.81588,49.93625 126.505,1.6425 h 12.13875 l 6.0025,32.74125 L 158.565,1.6425 h 14.73375 l 2.59,59.75125" /><path
         style="fill:#2e3192;fill-opacity:1;fill-rule:nonzero;stroke:none;stroke-width:0.125"
         id="path26"
         d="m 211.0875,61.39375 2.0475,-12.8225 h -21.42 l 1.69875,-10.6425 h 18.6275 L 214.09,25.10625 H 195.26125 L 196.9,14.465 h 21.41375 L 220.3625,1.6425 H 186.395 l -9.55125,59.75125 h 34.24375" /><path
         style="fill:#2e3192;fill-opacity:1;fill-rule:nonzero;stroke:none;stroke-width:0.125"
         id="path28"
         d="M 370.565,1.6425 H 356.23875 L 344.0975,21.14875 336.46,1.6425 h -14.0525 l 14.46125,31.51125 -4.45625,28.24 h 12.28 L 348.4625,36.43 370.565,1.6425" /><path
         style="fill:#2e3192;fill-opacity:1;fill-rule:nonzero;stroke:none;stroke-width:0.125"
         id="path30"
         d="m 297.66125,50.01625 c 6.495,2.905 14.44875,-2.795 17.76125,-12.73125 3.30875,-9.94 0.7325,-20.355 -5.76125,-23.26 C 303.165,11.1175 295.2175,16.81875 291.9025,26.76 288.59,36.70125 291.17,47.10875 297.66125,50.01625 Z M 279.08,26.37875 C 282.89375,9.8575 297.0125,-0.985 310.61625,2.16 324.22375,5.305 332.16375,21.2425 328.3525,37.7625 324.54125,54.28125 310.42,65.12375 296.8175,61.98 283.20875,58.835 275.26875,42.895 279.08,26.37875" /><path
         style="fill:#2e3192;fill-opacity:1;fill-rule:nonzero;stroke:none;stroke-width:0.125"
         id="path32"
         d="M 35.103,6.965 C 23.40375,14.20375 17.776375,25.24125 19.275375,40.24875 21.016125,57.65625 43.56,68.625 62.659125,57.575 c 1.67,-0.96625 1.018125,-0.8125 1.63825,-1.365 l 3.82075,-24.28375 H 45.3325 L 43.586875,43.1125 h 9.5215 l -1.09375,6.005 C 46.5605,51.29875 37.28325,50.48 33.328125,43.38625 30.82325,38.89375 28.5015,28.86625 39.0605,19.6475 c 8.588875,-7.5025 23.462,-8.865 32.058125,-4.90875 0,0 1.091375,-6.275 1.90675,-12.14375 C 56.519,-3.1325 43.694375,1.6425 35.103,6.965" /><path
         style="fill:#2e3192;fill-opacity:1;fill-rule:nonzero;stroke:none;stroke-width:0.125"
         id="path34"
         d="m 239.04875,1.975 -9.475,59.30125 c 0,0 19.63125,0 27.61625,0 11.3725,0 28.00375,-16.7625 12.86375,-30.46125 15.5675,-16.11125 0.1325,-28.70125 -8.125,-28.84 -6.6325,-0.11 -23.0125,0 -23.0125,0 z m 6.77,35.87875 c 0,0 2.5725,0 10.2875,0 9.75125,0 9.48,11.91375 -1.3525,11.91375 -6.765,0 -10.83,0 -10.83,0 z M 249.6075,14.5675 c 0,0 0.27125,0 7.99125,0 8.66375,0 6.90625,11.10125 -1.35,11.10125 -6.7725,0 -8.53375,0 -8.53375,0 l 1.8925,-11.10125" /><path
         style="fill:#231f20;fill-opacity:1;fill-rule:nonzero;stroke:none;stroke-width:0.125"
         id="path36"
         d="M 355.7575,66.875 H 353.44 l 1.94125,-8.255 h -3.3475 l 0.4175,-1.775 h 9.01125 l -0.4175,1.775 h -3.34625 l -1.94125,8.255" /><path
         style="fill:#231f20;fill-opacity:1;fill-rule:nonzero;stroke:none;stroke-width:0.125"
         id="path38"
         d="m 371.11125,66.875 h -2.16 l 1.97,-8.3825 h -0.03 l -4.035,8.3825 H 364.585 l -0.0537,-8.3825 h -0.0288 l -1.97,8.3825 h -2.16125 l 2.35625,-10.03 h 3.37625 l 0.15125,7.9075 h 0.0325 l 3.83,-7.9075 h 3.3525 l -2.35875,10.03" /></g></g><g
     transform="matrix(3.6363636,0,0,3.6363636,1053.8002,41.982697)"
     id="g145"><path
       style="fill:#99aab5"
       d="m 35.059,18 c 0,3.304 -7.642,11 -17.067,11 C 8.566,29 0.925,22.249 0.925,18 c 0,-3.313 7.642,-11 17.067,-11 9.425,0 17.067,7.686 17.067,11 z"
       id="path122" /><path
       style="fill:#f5f8fa"
       d="m 33.817,18 c 0,2.904 -7.087,9.667 -15.826,9.667 C 9.251,27.667 2.166,21.732 2.166,18 2.166,15.088 9.251,8.334 17.991,8.334 26.73,8.333 33.817,15.088 33.817,18 Z"
       id="path124" /><circle
       style="fill:#55acee"
       cx="18"
       cy="18"
       r="8.4580002"
       id="circle126" /><circle
       style="fill:#292f33"
       cx="18"
       cy="18"
       r="4.7080002"
       id="circle128" /><circle
       style="fill:#f5f8fa"
       cx="21"
       cy="15"
       r="2"
       id="circle130" /></g><g
     id="g157"
     transform="matrix(3.6363636,0,0,3.6363636,1265.8002,41.982697)"><path
       id="path147"
       d="m 35.059,18 c 0,3.304 -7.642,11 -17.067,11 C 8.566,29 0.925,22.249 0.925,18 c 0,-3.313 7.642,-11 17.067,-11 9.425,0 17.067,7.686 17.067,11 z"
       style="fill:#99aab5" /><path
       id="path149"
       d="m 33.817,18 c 0,2.904 -7.087,9.667 -15.826,9.667 C 9.251,27.667 2.166,21.732 2.166,18 2.166,15.088 9.251,8.334 17.991,8.334 26.73,8.333 33.817,15.088 33.817,18 Z"
       style="fill:#f5f8fa" /><circle
       id="circle151"
       r="8.4580002"
       cy="18"
       cx="18"
       style="fill:#55acee" /><circle
       id="circle153"
       r="4.7080002"
       cy="18"
       cx="18"
       style="fill:#292f33" /><circle
       id="circle155"
       r="2"
       cy="15"
       cx="21"
       style="fill:#f5f8fa" /></g></svg>